<?xml version="1.0" encoding="UTF-8"?> <!-- Creator: CorelDRAW 2020 (64-Bit) --> <svg xmlns="http://www.w3.org/2000/svg" xmlns:xlink="http://www.w3.org/1999/xlink" xmlns:xodm="http://www.corel.com/coreldraw/odm/2003" xml:space="preserve" width="59.3674mm" height="77.2282mm" style="shape-rendering:geometricPrecision; text-rendering:geometricPrecision; image-rendering:optimizeQuality; fill-rule:evenodd; clip-rule:evenodd" viewBox="0 0 1198.47 1559.03"> <defs> <style type="text/css"> <![CDATA[ .str1 {stroke:black;stroke-width:17.09;stroke-linecap:round;stroke-linejoin:round;stroke-miterlimit:22.9256} .str0 {stroke:black;stroke-width:17.09;stroke-linecap:round;stroke-linejoin:round;stroke-miterlimit:22.9256} .fil1 {fill:none} .fil0 {fill:black;fill-rule:nonzero} ]]> </style> </defs> <g id="Слой_x0020_1"> <metadata id="CorelCorpID_0Corel-Layer"></metadata> <g> <path class="fil0" d="M1093.57 118.98l-988.67 0 0 -17.09 988.67 0 0 0 0 17.09zm9.25 -7.85l-17.09 0 0 0 0.01 0.45 0.04 0.45 0.03 0.2 0.09 0.53 0.11 0.44 0.05 0.2 0.09 0.27 0.19 0.49 0.22 0.49 0.15 0.28 0.16 0.28 0.22 0.34 0.18 0.26 0.2 0.26 0.21 0.25 0.35 0.37 0.37 0.35 0.25 0.21 0.26 0.2 0.26 0.18 0.34 0.22 0.28 0.16 0.28 0.15 0.49 0.22 0.49 0.19 0.27 0.09 0.2 0.05 0.44 0.11 0.53 0.09 0.2 0.03 0.45 0.04 0.45 0.01 0 -17.09 0.52 0.01 0.52 0.05 0.27 0.03 0.6 0.11 0.51 0.12 0.26 0.07 0.33 0.11 0.56 0.21 0.55 0.25 0.34 0.18 0.34 0.19 0.39 0.25 0.32 0.22 0.31 0.24 0.3 0.25 0.42 0.39 0.39 0.42 0.25 0.3 0.24 0.31 0.22 0.32 0.25 0.39 0.19 0.34 0.18 0.34 0.25 0.55 0.21 0.56 0.11 0.33 0.07 0.26 0.12 0.51 0.11 0.6 0.03 0.27 0.05 0.52 0.01 0.52 0 0zm-17.09 1336.76l0 -1336.76 17.09 0 0 1336.76 0 0 -17.09 0zm7.85 9.25l0 -17.09 0 0 -0.45 0.01 -0.45 0.04 -0.2 0.03 -0.53 0.09 -0.44 0.11 -0.2 0.05 -0.27 0.09 -0.49 0.19 -0.49 0.22 -0.28 0.15 -0.28 0.16 -0.34 0.22 -0.26 0.18 -0.26 0.2 -0.25 0.21 -0.37 0.35 -0.35 0.37 -0.21 0.25 -0.2 0.26 -0.18 0.26 -0.22 0.34 -0.16 0.28 -0.15 0.28 -0.22 0.49 -0.19 0.49 -0.09 0.27 -0.05 0.2 -0.11 0.44 -0.09 0.53 -0.03 0.2 -0.04 0.45 -0.01 0.45 17.09 0 -0.01 0.52 -0.05 0.52 -0.03 0.27 -0.11 0.6 -0.12 0.51 -0.07 0.26 -0.11 0.33 -0.21 0.56 -0.25 0.55 -0.18 0.34 -0.19 0.34 -0.25 0.39 -0.22 0.32 -0.24 0.31 -0.25 0.3 -0.39 0.42 -0.42 0.39 -0.3 0.25 -0.31 0.24 -0.32 0.22 -0.39 0.25 -0.34 0.19 -0.34 0.18 -0.55 0.25 -0.56 0.21 -0.33 0.11 -0.26 0.07 -0.51 0.12 -0.6 0.11 -0.27 0.03 -0.52 0.05 -0.52 0.01 0 0zm-988.67 -17.09l988.67 0 0 17.09 -988.67 0 0 0 0 -17.09zm-9.25 7.85l17.09 0 0 0 -0.01 -0.45 -0.04 -0.45 -0.03 -0.2 -0.09 -0.53 -0.11 -0.44 -0.05 -0.2 -0.09 -0.27 -0.19 -0.49 -0.22 -0.49 -0.15 -0.28 -0.16 -0.28 -0.22 -0.34 -0.18 -0.26 -0.2 -0.26 -0.21 -0.25 -0.35 -0.37 -0.37 -0.35 -0.25 -0.21 -0.26 -0.2 -0.26 -0.18 -0.34 -0.22 -0.28 -0.16 -0.28 -0.15 -0.49 -0.22 -0.49 -0.19 -0.27 -0.09 -0.2 -0.05 -0.44 -0.11 -0.53 -0.09 -0.2 -0.03 -0.45 -0.04 -0.45 -0.01 0 17.09 -0.52 -0.01 -0.52 -0.05 -0.27 -0.03 -0.6 -0.11 -0.51 -0.12 -0.26 -0.07 -0.33 -0.11 -0.56 -0.21 -0.55 -0.25 -0.34 -0.18 -0.34 -0.19 -0.39 -0.25 -0.32 -0.22 -0.31 -0.24 -0.3 -0.25 -0.42 -0.39 -0.39 -0.42 -0.25 -0.3 -0.24 -0.31 -0.22 -0.32 -0.25 -0.39 -0.19 -0.34 -0.18 -0.34 -0.25 -0.55 -0.21 -0.56 -0.11 -0.33 -0.07 -0.26 -0.12 -0.51 -0.11 -0.6 -0.03 -0.27 -0.05 -0.52 -0.01 -0.52 0 0zm17.09 -1336.76l0 1336.76 -17.09 0 0 -1336.76 0 0 17.09 0zm-7.85 -9.25l0 17.09 0 0 0.45 -0.01 0.45 -0.04 0.2 -0.03 0.53 -0.09 0.44 -0.11 0.2 -0.05 0.27 -0.09 0.49 -0.19 0.49 -0.22 0.28 -0.15 0.28 -0.16 0.34 -0.22 0.26 -0.18 0.26 -0.2 0.25 -0.21 0.37 -0.35 0.35 -0.37 0.21 -0.25 0.2 -0.26 0.18 -0.26 0.22 -0.34 0.16 -0.28 0.15 -0.28 0.22 -0.49 0.19 -0.49 0.09 -0.27 0.05 -0.2 0.11 -0.44 0.09 -0.53 0.03 -0.2 0.04 -0.45 0.01 -0.45 -17.09 0 0.01 -0.52 0.05 -0.52 0.03 -0.27 0.11 -0.6 0.12 -0.51 0.07 -0.26 0.11 -0.33 0.21 -0.56 0.25 -0.55 0.18 -0.34 0.19 -0.34 0.25 -0.39 0.22 -0.32 0.24 -0.31 0.25 -0.3 0.39 -0.42 0.42 -0.39 0.3 -0.25 0.31 -0.24 0.32 -0.22 0.39 -0.25 0.34 -0.19 0.34 -0.18 0.55 -0.25 0.56 -0.21 0.33 -0.11 0.26 -0.07 0.51 -0.12 0.6 -0.11 0.27 -0.03 0.52 -0.05 0.52 -0.01 0 0z"></path> </g> <g> <path class="fil1 str0" d="M9.34 8.54l1179.78 0c0.44,0 0.8,0.38 0.8,0.8l0 1540.34c0,0.42 -0.37,0.8 -0.8,0.8l-1179.78 0c-0.42,0 -0.8,-0.36 -0.8,-0.8l0 -1540.34c0,-0.44 0.36,-0.8 0.8,-0.8z"></path> </g> <g> <path class="fil0" d="M508.91 292.62c4.69,-0.51 8.91,2.88 9.42,7.57 0.51,4.69 -2.88,8.91 -7.57,9.42l-1.85 -16.99zm-56.86 151.22l-17.03 -1.43 -0.01 1.31 -0.65 -12.49 -0.17 -11.79 0.28 -11.12 0.71 -10.47 1.11 -9.84 1.48 -9.23 1.82 -8.64 2.15 -8.06 2.44 -7.51 2.7 -6.97 2.94 -6.46 3.14 -5.95 3.31 -5.46 3.46 -5 3.57 -4.54 3.65 -4.1 3.69 -3.69 3.7 -3.28 3.68 -2.91 3.62 -2.55 3.53 -2.21 3.4 -1.9 3.25 -1.61 3.06 -1.34 2.83 -1.1 2.59 -0.88 2.31 -0.68 1.99 -0.51 1.65 -0.37 1.27 -0.24 0.84 -0.13 0.54 -0.07 1.85 16.99 0.11 -0.01 -0.42 0.06 -0.76 0.14 -1.09 0.24 -1.4 0.36 -1.68 0.5 -1.93 0.66 -2.16 0.83 -2.35 1.03 -2.52 1.25 -2.66 1.48 -2.78 1.74 -2.86 2.01 -2.93 2.31 -2.96 2.63 -2.98 2.97 -2.97 3.33 -2.93 3.73 -2.87 4.14 -2.78 4.59 -2.67 5.06 -2.53 5.55 -2.35 6.07 -2.15 6.62 -1.92 7.19 -1.65 7.79 -1.35 8.42 -1.02 9.06 -0.66 9.73 -0.27 10.42 0.16 11.14 0.62 11.87 -0.01 1.31zm0.01 -1.31c0.33,4.71 -3.22,8.79 -7.93,9.12 -4.71,0.33 -8.79,-3.22 -9.12,-7.93l17.05 -1.2zm53.46 175.84l-11.02 13.07 0 0 -5.13 -4.48 -4.88 -4.56 -4.63 -4.64 -4.38 -4.73 -4.14 -4.82 -3.9 -4.91 -3.66 -5 -3.43 -5.09 -3.2 -5.19 -2.97 -5.27 -2.75 -5.37 -2.53 -5.46 -2.32 -5.55 -2.11 -5.64 -1.91 -5.74 -1.72 -5.82 -1.53 -5.91 -1.34 -6.01 -1.16 -6.1 -0.99 -6.2 -0.83 -6.29 -0.67 -6.39 -0.52 -6.49 -0.37 -6.6 -0.23 -6.7 -0.1 -6.81 0.03 -6.91 0.15 -7.03 0.27 -7.14 0.38 -7.26 0.48 -7.38 0.59 -7.5 17.03 1.43 -0.57 7.3 -0.47 7.16 -0.37 7.02 -0.26 6.88 -0.15 6.74 -0.03 6.61 0.09 6.47 0.22 6.34 0.35 6.21 0.49 6.08 0.62 5.96 0.77 5.83 0.92 5.71 1.07 5.59 1.22 5.47 1.38 5.37 1.55 5.26 1.72 5.15 1.89 5.05 2.07 4.95 2.25 4.86 2.44 4.77 2.64 4.69 2.84 4.61 3.05 4.53 3.26 4.46 3.48 4.39 3.71 4.33 3.95 4.27 4.19 4.21 4.44 4.15 4.7 4.1 0 0zm0 0c3.61,3.04 4.07,8.43 1.02,12.04 -3.04,3.61 -8.43,4.07 -12.04,1.02l11.02 -13.07zm159.33 -71.51l16.02 5.96 -3.7 9.25 -4.02 8.79 -4.32 8.33 -4.61 7.87 -4.88 7.41 -5.14 6.96 -5.37 6.51 -5.59 6.06 -5.78 5.61 -5.96 5.16 -6.12 4.72 -6.26 4.28 -6.38 3.84 -6.48 3.4 -6.56 2.97 -6.62 2.54 -6.67 2.11 -6.68 1.69 -6.69 1.27 -6.67 0.86 -6.65 0.44 -6.59 0.03 -6.51 -0.37 -6.43 -0.78 -6.31 -1.17 -6.18 -1.57 -6.03 -1.97 -5.86 -2.36 -5.67 -2.75 -5.45 -3.13 -5.22 -3.51 -4.96 -3.88 11.02 -13.07 3.98 3.12 4.2 2.82 4.41 2.53 4.6 2.23 4.78 1.92 4.95 1.61 5.1 1.3 5.23 0.97 5.35 0.65 5.45 0.31 5.53 -0.03 5.6 -0.37 5.65 -0.72 5.68 -1.08 5.7 -1.44 5.7 -1.8 5.68 -2.18 5.65 -2.56 5.59 -2.94 5.53 -3.33 5.44 -3.72 5.35 -4.12 5.23 -4.53 5.1 -4.94 4.94 -5.36 4.78 -5.79 4.59 -6.22 4.39 -6.66 4.17 -7.11 3.93 -7.56 3.67 -8.02 3.4 -8.49zm0 0c1.65,-4.42 6.57,-6.67 10.99,-5.03 4.42,1.65 6.67,6.57 5.03,10.99l-16.02 -5.96z"></path> </g> <g> <path class="fil0" d="M516.19 642.68c-1.83,-4.35 0.21,-9.36 4.55,-11.2 4.35,-1.83 9.36,0.21 11.2,4.55l-15.75 6.64zm-4.35 86.64l-4.7 -16.44 0 0 3.04 -1.04 2.6 -1.23 2.23 -1.39 1.92 -1.54 1.66 -1.71 1.44 -1.88 1.24 -2.06 1.06 -2.26 0.89 -2.45 0.71 -2.63 0.53 -2.79 0.36 -2.94 0.19 -3.05 0.03 -3.14 -0.12 -3.19 -0.25 -3.22 -0.37 -3.22 -0.47 -3.19 -0.56 -3.14 -0.63 -3.05 -0.69 -2.95 -0.72 -2.81 -0.74 -2.65 -0.73 -2.47 -0.71 -2.26 -0.68 -2.03 -0.62 -1.77 -0.54 -1.49 -0.45 -1.18 -0.34 -0.85 -0.21 -0.52 -0.04 -0.09 15.75 -6.64 0.13 0.31 0.26 0.64 0.4 1.03 0.52 1.37 0.62 1.69 0.7 1.99 0.75 2.27 0.8 2.52 0.82 2.76 0.83 2.97 0.81 3.16 0.78 3.33 0.72 3.48 0.65 3.61 0.55 3.72 0.44 3.81 0.3 3.89 0.14 3.94 -0.04 3.98 -0.25 4 -0.49 4 -0.76 3.98 -1.06 3.94 -1.41 3.88 -1.78 3.78 -2.2 3.63 -2.63 3.43 -3.08 3.16 -3.52 2.84 -3.95 2.47 -4.36 2.06 -4.75 1.63 0 0zm-49.26 37l-12.56 -11.59 1.8 -1.93 1.81 -1.91 1.83 -1.88 1.83 -1.84 1.84 -1.81 1.85 -1.78 1.85 -1.74 1.86 -1.71 1.86 -1.67 1.86 -1.63 1.85 -1.59 1.85 -1.55 1.85 -1.51 1.84 -1.46 1.84 -1.42 1.83 -1.37 1.82 -1.33 1.81 -1.29 1.8 -1.23 1.79 -1.19 1.78 -1.14 1.76 -1.09 1.75 -1.03 1.74 -0.98 1.73 -0.93 1.71 -0.87 1.69 -0.81 1.68 -0.76 1.67 -0.69 1.66 -0.63 1.65 -0.57 1.64 -0.5 4.7 16.44 -1.04 0.32 -1.1 0.38 -1.16 0.44 -1.22 0.51 -1.27 0.57 -1.32 0.63 -1.36 0.69 -1.4 0.75 -1.44 0.81 -1.47 0.87 -1.5 0.92 -1.53 0.98 -1.56 1.04 -1.58 1.09 -1.6 1.14 -1.62 1.19 -1.65 1.24 -1.66 1.28 -1.67 1.33 -1.68 1.37 -1.69 1.42 -1.7 1.46 -1.71 1.5 -1.71 1.53 -1.71 1.57 -1.71 1.61 -1.71 1.65 -1.71 1.68 -1.7 1.71 -1.69 1.74 -1.69 1.77 -1.68 1.8zm0 0c-3.2,3.47 -8.61,3.69 -12.08,0.49 -3.47,-3.2 -3.69,-8.61 -0.49,-12.08l12.56 11.59zm-49.08 42.29c1.89,-4.33 6.92,-6.3 11.25,-4.42 4.33,1.89 6.3,6.92 4.42,11.25l-15.67 -6.83zm37.74 72.68l-6.04 15.99 0 0 -3.87 -1.56 -3.67 -1.68 -3.48 -1.8 -3.28 -1.92 -3.09 -2.03 -2.9 -2.15 -2.71 -2.27 -2.51 -2.38 -2.31 -2.49 -2.11 -2.58 -1.91 -2.68 -1.7 -2.77 -1.5 -2.85 -1.3 -2.92 -1.1 -2.97 -0.91 -3.02 -0.72 -3.06 -0.53 -3.1 -0.36 -3.12 -0.19 -3.14 -0.03 -3.16 0.13 -3.17 0.27 -3.18 0.41 -3.19 0.55 -3.19 0.68 -3.19 0.8 -3.19 0.92 -3.19 1.02 -3.19 1.13 -3.18 1.23 -3.18 1.33 -3.17 15.67 6.83 -1.15 2.75 -1.06 2.73 -0.96 2.71 -0.86 2.68 -0.76 2.64 -0.65 2.61 -0.54 2.57 -0.43 2.52 -0.32 2.47 -0.21 2.42 -0.09 2.36 0.02 2.3 0.14 2.25 0.25 2.19 0.37 2.12 0.48 2.07 0.6 2 0.72 1.95 0.85 1.9 0.97 1.84 1.11 1.8 1.25 1.76 1.4 1.72 1.56 1.68 1.73 1.64 1.91 1.6 2.11 1.56 2.31 1.52 2.51 1.47 2.72 1.41 2.95 1.35 3.17 1.28 0 0zm201.96 -0.33l13.34 10.69 -3.6 4.11 -3.97 3.8 -4.3 3.49 -4.61 3.19 -4.9 2.89 -5.18 2.6 -5.43 2.33 -5.68 2.06 -5.91 1.79 -6.14 1.54 -6.34 1.29 -6.55 1.05 -6.74 0.81 -6.93 0.58 -7.1 0.35 -7.27 0.13 -7.42 -0.09 -7.57 -0.31 -7.71 -0.53 -7.83 -0.74 -7.95 -0.95 -8.06 -1.16 -8.15 -1.37 -8.24 -1.57 -8.32 -1.77 -8.38 -1.97 -8.43 -2.17 -8.48 -2.37 -8.51 -2.56 -8.54 -2.75 -8.55 -2.95 -8.55 -3.14 6.04 -15.99 8.23 3.02 8.23 2.84 8.21 2.65 8.18 2.46 8.15 2.28 8.09 2.09 8.03 1.89 7.96 1.7 7.87 1.5 7.77 1.3 7.66 1.1 7.54 0.9 7.4 0.7 7.26 0.5 7.09 0.29 6.92 0.09 6.73 -0.12 6.54 -0.32 6.33 -0.53 6.1 -0.73 5.87 -0.94 5.62 -1.14 5.36 -1.34 5.09 -1.54 4.8 -1.74 4.5 -1.93 4.19 -2.11 3.88 -2.29 3.57 -2.47 3.24 -2.63 2.93 -2.81 2.61 -2.98zm0 0c2.95,-3.68 8.33,-4.27 12.01,-1.32 3.68,2.95 4.27,8.33 1.32,12.01l-13.34 -10.69z"></path> </g> <g> <path class="fil0" d="M458.21 588.49c-0.75,-4.66 2.42,-9.05 7.07,-9.8 4.66,-0.75 9.05,2.42 9.8,7.07l-16.87 2.73zm2.3 48.8l-17.09 0.07 0 0 0.11 -2.03 0.33 -1.99 0.55 -1.89 0.71 -1.73 0.83 -1.56 0.89 -1.38 0.91 -1.24 0.91 -1.1 0.89 -1 0.87 -0.93 0.83 -0.87 0.79 -0.83 0.75 -0.82 0.71 -0.8 0.67 -0.81 0.64 -0.83 0.6 -0.85 0.57 -0.91 0.53 -0.96 0.51 -1.05 0.48 -1.15 0.44 -1.26 0.4 -1.41 0.35 -1.56 0.28 -1.74 0.21 -1.93 0.13 -2.13 0.03 -2.35 -0.08 -2.57 -0.2 -2.81 -0.33 -3.06 -0.48 -3.31 16.87 -2.73 0.56 3.88 0.4 3.67 0.25 3.48 0.1 3.3 -0.04 3.12 -0.18 2.95 -0.31 2.8 -0.43 2.64 -0.55 2.5 -0.66 2.36 -0.77 2.22 -0.86 2.07 -0.93 1.93 -1 1.79 -1.03 1.65 -1.06 1.52 -1.06 1.38 -1.04 1.26 -1.01 1.14 -0.95 1.03 -0.88 0.93 -0.79 0.83 -0.68 0.72 -0.56 0.63 -0.44 0.53 -0.31 0.41 -0.2 0.3 -0.1 0.18 -0.04 0.09 -0.01 0.03 -0.01 0.04 -0.01 0.13 0 0zm13.78 31.11l-16.98 1.99 0 0 -0.09 -0.6 -0.13 -0.63 -0.17 -0.67 -0.22 -0.7 -0.27 -0.76 -0.31 -0.78 -0.35 -0.81 -0.39 -0.83 -0.44 -0.87 -0.47 -0.9 -0.5 -0.9 -0.53 -0.93 -0.56 -0.95 -0.58 -0.97 -0.6 -0.99 -0.61 -1 -0.62 -1.02 -0.63 -1.04 -0.63 -1.06 -0.63 -1.07 -0.62 -1.09 -0.61 -1.12 -0.59 -1.15 -0.57 -1.17 -0.54 -1.21 -0.51 -1.25 -0.47 -1.3 -0.41 -1.34 -0.35 -1.4 -0.27 -1.47 -0.18 -1.51 -0.07 -1.56 17.09 -0.07 0.01 0.26 0.04 0.33 0.07 0.38 0.12 0.46 0.16 0.53 0.21 0.59 0.26 0.65 0.31 0.7 0.36 0.75 0.41 0.79 0.45 0.83 0.49 0.87 0.52 0.9 0.56 0.93 0.58 0.96 0.6 0.99 0.63 1.02 0.63 1.04 0.64 1.07 0.65 1.1 0.65 1.13 0.65 1.17 0.63 1.19 0.61 1.22 0.59 1.27 0.56 1.3 0.53 1.34 0.48 1.37 0.44 1.43 0.38 1.47 0.31 1.52 0.23 1.56 0 0zm-8.47 23.37l-10.8 -13.25 0 0 0.2 -0.18 0.18 -0.17 0.18 -0.18 0.16 -0.17 0.14 -0.16 0.15 -0.19 0.14 -0.19 0.12 -0.17 0.11 -0.18 0.11 -0.19 0.11 -0.2 0.1 -0.2 0.09 -0.21 0.09 -0.22 0.08 -0.23 0.07 -0.24 0.07 -0.25 0.06 -0.25 0.06 -0.28 0.05 -0.28 0.04 -0.28 0.04 -0.3 0.03 -0.3 0.02 -0.33 0.02 -0.33 0.01 -0.33 0 -0.35 -0.01 -0.35 -0.02 -0.35 -0.02 -0.37 -0.03 -0.36 -0.04 -0.37 16.98 -1.99 0.08 0.7 0.06 0.72 0.05 0.71 0.03 0.73 0.02 0.73 0 0.73 -0.02 0.75 -0.04 0.75 -0.05 0.74 -0.07 0.76 -0.09 0.76 -0.12 0.77 -0.14 0.77 -0.16 0.76 -0.19 0.78 -0.22 0.77 -0.25 0.78 -0.27 0.78 -0.3 0.77 -0.34 0.77 -0.36 0.76 -0.39 0.75 -0.43 0.74 -0.46 0.75 -0.5 0.73 -0.51 0.7 -0.54 0.69 -0.6 0.7 -0.62 0.66 -0.64 0.64 -0.68 0.62 -0.7 0.6 0 0zm-4.84 7l-17.06 -0.99 0 -0 0.05 -0.65 0.07 -0.66 0.08 -0.63 0.1 -0.65 0.13 -0.66 0.15 -0.66 0.17 -0.66 0.19 -0.64 0.2 -0.64 0.23 -0.65 0.25 -0.65 0.28 -0.65 0.28 -0.62 0.3 -0.62 0.33 -0.63 0.35 -0.62 0.37 -0.61 0.39 -0.6 0.4 -0.59 0.42 -0.58 0.44 -0.59 0.45 -0.57 0.48 -0.58 0.49 -0.57 0.5 -0.55 0.52 -0.55 0.54 -0.54 0.56 -0.54 0.57 -0.53 0.59 -0.53 0.61 -0.52 0.62 -0.52 10.8 13.25 -0.39 0.32 -0.37 0.32 -0.35 0.31 -0.33 0.31 -0.3 0.29 -0.29 0.29 -0.27 0.28 -0.26 0.28 -0.23 0.26 -0.21 0.25 -0.21 0.26 -0.18 0.24 -0.17 0.24 -0.16 0.23 -0.14 0.22 -0.12 0.21 -0.11 0.2 -0.1 0.19 -0.1 0.2 -0.09 0.2 -0.07 0.16 -0.06 0.17 -0.06 0.16 -0.05 0.17 -0.05 0.16 -0.04 0.15 -0.03 0.15 -0.03 0.14 -0.03 0.16 -0.02 0.17 -0.02 0.15 -0.01 0.15 0 -0zm12.95 44.22l-15.77 -6.58 0 -0 0.27 -0.74 0.17 -0.65 0.1 -0.61 0.04 -0.6 -0.01 -0.6 -0.07 -0.62 -0.13 -0.68 -0.2 -0.74 -0.26 -0.79 -0.34 -0.85 -0.42 -0.91 -0.49 -0.96 -0.57 -1.01 -0.63 -1.06 -0.68 -1.09 -0.74 -1.14 -0.78 -1.18 -0.82 -1.22 -0.84 -1.26 -0.86 -1.3 -0.86 -1.35 -0.86 -1.39 -0.85 -1.45 -0.82 -1.52 -0.78 -1.57 -0.73 -1.66 -0.65 -1.74 -0.57 -1.82 -0.45 -1.91 -0.32 -2 -0.16 -2.08 0.03 -2.12 17.06 0.99 -0.01 0.61 0.05 0.62 0.11 0.66 0.17 0.72 0.24 0.78 0.31 0.83 0.39 0.89 0.47 0.95 0.54 1 0.61 1.04 0.67 1.09 0.72 1.12 0.77 1.16 0.81 1.21 0.83 1.24 0.85 1.28 0.86 1.33 0.86 1.38 0.85 1.43 0.83 1.49 0.8 1.56 0.74 1.62 0.68 1.71 0.6 1.79 0.49 1.87 0.37 1.96 0.21 2.06 0.03 2.12 -0.16 2.15 -0.37 2.19 -0.59 2.18 -0.79 2.15 0 -0zm0 0c-1.82,4.35 -6.83,6.41 -11.18,4.59 -4.35,-1.82 -6.41,-6.83 -4.59,-11.18l15.77 6.59zm-9.18 14.78l-16.93 -2.39 0 0 0.18 -1.13 0.23 -1.12 0.27 -1.08 0.3 -1.03 0.34 -1.01 0.37 -0.96 0.41 -0.93 0.44 -0.89 0.44 -0.83 0.46 -0.8 0.48 -0.76 0.48 -0.71 0.48 -0.67 0.47 -0.63 0.46 -0.58 0.46 -0.56 0.44 -0.52 0.4 -0.47 0.4 -0.46 0.37 -0.42 0.33 -0.39 0.32 -0.37 0.28 -0.34 0.26 -0.32 0.24 -0.31 0.21 -0.28 0.17 -0.25 0.16 -0.25 0.14 -0.24 0.12 -0.22 0.11 -0.22 0.1 -0.23 15.77 6.58 -0.4 0.9 -0.43 0.87 -0.45 0.82 -0.46 0.77 -0.47 0.73 -0.48 0.7 -0.47 0.64 -0.46 0.59 -0.45 0.56 -0.44 0.53 -0.42 0.49 -0.41 0.47 -0.38 0.43 -0.34 0.4 -0.34 0.39 -0.31 0.36 -0.27 0.34 -0.26 0.33 -0.23 0.31 -0.21 0.29 -0.19 0.28 -0.17 0.27 -0.16 0.27 -0.15 0.28 -0.13 0.26 -0.12 0.28 -0.12 0.3 -0.11 0.31 -0.1 0.36 -0.09 0.38 -0.08 0.41 -0.08 0.47 0 0zm12.51 27.44l-16.68 -3.72 0 0 -0.08 0.56 -0 0.55 0.06 0.47 0.08 0.3 0.05 0.13 -0.02 -0.02 -0.1 -0.17 -0.19 -0.28 -0.29 -0.39 -0.38 -0.47 -0.45 -0.53 -0.53 -0.61 -0.6 -0.66 -0.65 -0.71 -0.7 -0.77 -0.74 -0.83 -0.76 -0.87 -0.79 -0.94 -0.79 -1 -0.8 -1.06 -0.79 -1.14 -0.77 -1.21 -0.74 -1.3 -0.69 -1.38 -0.63 -1.46 -0.56 -1.55 -0.46 -1.63 -0.36 -1.71 -0.23 -1.79 -0.1 -1.84 0.05 -1.88 0.2 -1.91 16.93 2.39 -0.06 0.61 -0.01 0.55 0.03 0.51 0.06 0.48 0.1 0.48 0.14 0.48 0.18 0.5 0.22 0.52 0.27 0.54 0.32 0.55 0.37 0.59 0.42 0.6 0.47 0.62 0.51 0.64 0.55 0.65 0.59 0.68 0.61 0.69 0.64 0.71 0.67 0.74 0.68 0.76 0.69 0.79 0.71 0.84 0.7 0.88 0.7 0.95 0.7 1.05 0.67 1.15 0.63 1.28 0.55 1.44 0.43 1.61 0.24 1.78 -0.01 1.87 -0.28 1.89 0 0zm-15.91 15.53l-5.64 -16.13 -0 0 0.2 -0.07 0.22 -0.09 0.25 -0.1 0.24 -0.1 0.26 -0.12 0.24 -0.11 0.24 -0.12 0.26 -0.13 0.25 -0.14 0.25 -0.14 0.25 -0.15 0.24 -0.15 0.22 -0.15 0.22 -0.16 0.22 -0.16 0.18 -0.14 0.19 -0.15 0.18 -0.15 0.15 -0.14 0.15 -0.15 0.12 -0.12 0.09 -0.1 0.09 -0.11 0.07 -0.09 0.05 -0.07 0.04 -0.07 0.02 -0.03 0.01 -0.02 0.01 -0.02 -0.01 0.03 -0.01 0.04 -0.01 0.03 16.68 3.72 -0.23 0.92 -0.28 0.9 -0.34 0.88 -0.36 0.81 -0.4 0.79 -0.44 0.76 -0.45 0.7 -0.48 0.68 -0.49 0.65 -0.5 0.61 -0.53 0.6 -0.53 0.55 -0.52 0.51 -0.55 0.5 -0.54 0.47 -0.55 0.45 -0.57 0.44 -0.55 0.4 -0.56 0.39 -0.57 0.37 -0.56 0.35 -0.55 0.33 -0.55 0.31 -0.55 0.3 -0.54 0.28 -0.56 0.27 -0.55 0.26 -0.52 0.23 -0.53 0.23 -0.51 0.21 -0.52 0.2 -0.53 0.19 -0 0zm1.74 20.61l-10.38 -13.58 -0.67 0.62 -0.54 0.7 -0.36 0.67 -0.19 0.53 -0.07 0.33 -0.02 0.14 0 -0.07 -0.01 -0.23 -0.04 -0.36 -0.08 -0.49 -0.11 -0.58 -0.15 -0.65 -0.18 -0.72 -0.21 -0.79 -0.23 -0.83 -0.24 -0.87 -0.25 -0.91 -0.25 -0.94 -0.25 -0.98 -0.24 -1.01 -0.22 -1.06 -0.19 -1.11 -0.15 -1.17 -0.08 -1.27 0.01 -1.37 0.15 -1.51 0.37 -1.67 0.7 -1.81 1.11 -1.84 1.54 -1.68 1.86 -1.33 1.97 -0.9 5.64 16.13 0.89 -0.41 0.98 -0.7 0.83 -0.9 0.57 -0.94 0.31 -0.79 0.12 -0.53 0.03 -0.27 0 -0.03 0.01 0.15 0.04 0.32 0.08 0.45 0.12 0.56 0.15 0.65 0.18 0.72 0.21 0.78 0.23 0.85 0.25 0.9 0.25 0.93 0.25 0.97 0.25 1.02 0.24 1.06 0.21 1.1 0.18 1.14 0.14 1.22 0.07 1.29 -0.02 1.37 -0.15 1.51 -0.34 1.61 -0.59 1.71 -0.92 1.74 -1.27 1.66 -1.58 1.45zm0 0c-3.75,2.86 -9.11,2.15 -11.98,-1.6 -2.86,-3.75 -2.15,-9.11 1.6,-11.98l10.38 13.58z"></path> </g> <g> <path class="fil0" d="M415.41 805.87c3.4,-3.27 8.81,-3.17 12.08,0.23 3.27,3.4 3.17,8.81 -0.23,12.08l-11.85 -12.31zm-12.66 332.07l-13.81 10.07 -11.77 -17.22 -10.15 -17.07 -8.6 -16.89 -7.13 -16.68 -5.74 -16.44 -4.41 -16.17 -3.18 -15.87 -2.02 -15.55 -0.94 -15.19 0.05 -14.8 0.95 -14.38 1.78 -13.94 2.51 -13.47 3.16 -12.98 3.72 -12.47 4.2 -11.93 4.59 -11.37 4.9 -10.79 5.12 -10.2 5.26 -9.57 5.32 -8.94 5.29 -8.28 5.19 -7.59 5 -6.9 4.73 -6.17 4.37 -5.43 3.94 -4.67 3.42 -3.88 2.82 -3.08 2.14 -2.25 1.37 -1.39 0.58 -0.57 11.85 12.31 -0.31 0.31 -1.19 1.21 -1.94 2.03 -2.6 2.84 -3.19 3.62 -3.7 4.38 -4.12 5.12 -4.47 5.83 -4.73 6.52 -4.91 7.19 -5.01 7.83 -5.03 8.45 -4.97 9.04 -4.83 9.61 -4.61 10.16 -4.31 10.68 -3.93 11.18 -3.48 11.65 -2.95 12.1 -2.34 12.53 -1.65 12.94 -0.89 13.33 -0.05 13.7 0.87 14.06 1.87 14.4 2.95 14.72 4.1 15.03 5.35 15.33 6.67 15.61 8.09 15.88 9.59 16.13 11.18 16.36zm0 0c2.78,3.81 1.94,9.16 -1.87,11.94 -3.81,2.78 -9.16,1.94 -11.94,-1.87l13.81 -10.07z"></path> </g> <g> <path class="fil0" d="M430.15 371.82c-1.94,4.3 -7,6.22 -11.3,4.28 -4.3,-1.94 -6.22,-7 -4.28,-11.3l15.58 7.03zm4.82 -52.05l15.54 7.12 0 0 -0.66 1.45 -0.69 1.52 -0.73 1.6 -0.76 1.66 -0.78 1.71 -0.8 1.76 -0.82 1.8 -0.84 1.83 -0.84 1.85 -0.85 1.87 -0.85 1.87 -0.85 1.87 -0.84 1.86 -0.83 1.84 -0.82 1.81 -0.8 1.78 -0.78 1.73 -0.76 1.68 -0.73 1.62 -0.7 1.55 -0.67 1.47 -0.63 1.39 -0.58 1.3 -0.54 1.2 -0.49 1.09 -0.44 0.96 -0.38 0.84 -0.32 0.71 -0.25 0.56 -0.19 0.41 -0.11 0.24 -0.04 0.09 -15.58 -7.03 0.04 -0.08 0.12 -0.27 0.18 -0.41 0.26 -0.56 0.32 -0.7 0.38 -0.84 0.44 -0.97 0.49 -1.09 0.54 -1.2 0.59 -1.3 0.63 -1.39 0.67 -1.47 0.7 -1.55 0.73 -1.63 0.76 -1.68 0.78 -1.73 0.8 -1.78 0.82 -1.81 0.83 -1.84 0.84 -1.86 0.85 -1.87 0.85 -1.87 0.85 -1.87 0.85 -1.86 0.83 -1.83 0.82 -1.8 0.81 -1.77 0.78 -1.72 0.76 -1.66 0.73 -1.6 0.7 -1.54 0.67 -1.45 0 0zm188.46 -82.42l-2.51 16.91 0 0 -12.81 -1.65 -12.14 -1.08 -11.48 -0.54 -10.84 -0.04 -10.22 0.43 -9.61 0.87 -9.03 1.27 -8.47 1.64 -7.92 1.98 -7.4 2.28 -6.9 2.55 -6.42 2.79 -5.96 3 -5.52 3.18 -5.11 3.33 -4.71 3.45 -4.33 3.55 -3.98 3.61 -3.64 3.65 -3.32 3.66 -3.01 3.64 -2.72 3.6 -2.44 3.52 -2.19 3.42 -1.95 3.29 -1.72 3.13 -1.51 2.94 -1.31 2.73 -1.14 2.49 -0.99 2.23 -0.86 1.98 -0.77 1.73 -15.54 -7.12 0.66 -1.48 0.85 -1.97 1.06 -2.39 1.26 -2.75 1.48 -3.07 1.72 -3.35 1.97 -3.58 2.23 -3.78 2.52 -3.94 2.83 -4.07 3.15 -4.17 3.49 -4.23 3.85 -4.25 4.23 -4.24 4.62 -4.2 5.03 -4.11 5.46 -4 5.9 -3.84 6.35 -3.65 6.82 -3.43 7.3 -3.17 7.79 -2.88 8.29 -2.55 8.81 -2.2 9.34 -1.81 9.89 -1.39 10.44 -0.94 11.02 -0.47 11.6 0.04 12.21 0.58 12.83 1.14 13.46 1.73 0 0zm152.33 229.39l-17.07 0.78 0 0 -0.07 -1.88 -0.09 -2.71 -0.14 -3.55 -0.22 -4.35 -0.32 -5.09 -0.45 -5.78 -0.6 -6.41 -0.78 -6.97 -0.99 -7.47 -1.22 -7.92 -1.47 -8.29 -1.75 -8.6 -2.06 -8.86 -2.38 -9.05 -2.74 -9.17 -3.11 -9.24 -3.51 -9.23 -3.93 -9.18 -4.37 -9.05 -4.83 -8.86 -5.32 -8.62 -5.82 -8.32 -6.35 -7.95 -6.9 -7.54 -7.47 -7.07 -8.06 -6.55 -8.69 -5.99 -9.35 -5.37 -10.05 -4.7 -10.78 -3.97 -11.56 -3.19 -12.39 -2.34 2.51 -16.91 13.73 2.6 12.93 3.56 12.14 4.47 11.35 5.31 10.58 6.07 9.83 6.77 9.1 7.39 8.38 7.94 7.7 8.42 7.04 8.82 6.42 9.16 5.82 9.43 5.25 9.64 4.72 9.78 4.22 9.85 3.75 9.87 3.31 9.83 2.9 9.72 2.52 9.56 2.17 9.33 1.84 9.04 1.54 8.7 1.28 8.29 1.03 7.82 0.82 7.29 0.63 6.7 0.47 6.04 0.34 5.33 0.23 4.54 0.15 3.69 0.09 2.76 0.06 1.69 0 0zm17.41 185.34l-16.88 2.72 0 0 -0.62 -4.03 -0.63 -4.51 -0.65 -4.97 -0.66 -5.39 -0.68 -5.78 -0.69 -6.14 -0.7 -6.45 -0.71 -6.73 -0.71 -6.97 -0.71 -7.16 -0.71 -7.33 -0.71 -7.45 -0.7 -7.53 -0.69 -7.57 -0.68 -7.58 -0.67 -7.55 -0.65 -7.47 -0.63 -7.36 -0.61 -7.2 -0.59 -7.01 -0.56 -6.78 -0.53 -6.51 -0.49 -6.2 -0.46 -5.85 -0.42 -5.47 -0.39 -5.04 -0.34 -4.58 -0.3 -4.07 -0.25 -3.53 -0.2 -2.96 -0.15 -2.36 -0.09 -1.75 17.07 -0.78 0.08 1.52 0.14 2.24 0.19 2.89 0.25 3.49 0.29 4.04 0.34 4.55 0.38 5.01 0.42 5.44 0.46 5.83 0.49 6.19 0.53 6.49 0.56 6.76 0.59 6.99 0.61 7.18 0.63 7.34 0.65 7.45 0.67 7.52 0.68 7.56 0.69 7.55 0.7 7.5 0.7 7.42 0.71 7.29 0.71 7.12 0.71 6.92 0.7 6.67 0.69 6.39 0.68 6.06 0.67 5.69 0.65 5.29 0.63 4.83 0.61 4.33 0.58 3.79 0 0zm0 0c0.75,4.66 -2.42,9.05 -7.08,9.8 -4.66,0.75 -9.05,-2.42 -9.8,-7.08l16.88 -2.72zm76.51 140.67l-9.84 13.98 -3.61 -2.72 -3.57 -3.03 -3.53 -3.32 -3.49 -3.59 -3.46 -3.84 -3.43 -4.08 -3.4 -4.3 -3.37 -4.5 -3.33 -4.68 -3.29 -4.85 -3.24 -5 -3.19 -5.13 -3.12 -5.25 -3.06 -5.34 -2.99 -5.42 -2.91 -5.48 -2.83 -5.53 -2.74 -5.55 -2.64 -5.55 -2.54 -5.54 -2.43 -5.51 -2.31 -5.46 -2.18 -5.39 -2.05 -5.31 -1.91 -5.21 -1.77 -5.09 -1.61 -4.96 -1.46 -4.8 -1.29 -4.64 -1.12 -4.46 -0.93 -4.28 -0.74 -4.08 16.88 -2.72 0.63 3.44 0.82 3.74 1 4 1.18 4.24 1.35 4.45 1.51 4.63 1.67 4.79 1.81 4.93 1.95 5.05 2.08 5.15 2.21 5.22 2.33 5.28 2.43 5.32 2.54 5.33 2.63 5.33 2.71 5.3 2.79 5.25 2.86 5.19 2.92 5.1 2.98 4.99 3.02 4.86 3.05 4.72 3.08 4.55 3.1 4.36 3.1 4.15 3.1 3.91 3.08 3.66 3.05 3.39 3 3.09 2.94 2.77 2.86 2.43 2.75 2.08zm0 0c3.86,2.72 4.78,8.05 2.07,11.91 -2.72,3.86 -8.05,4.78 -11.91,2.07l9.84 -13.98z"></path> </g> <g> <path class="fil0" d="M631.33 1311.36c-2.51,4 -7.79,5.2 -11.78,2.69 -4,-2.51 -5.2,-7.79 -2.69,-11.78l14.47 9.1zm137.02 -139.41l6.5 15.81 -8.16 3.54 -7.97 3.81 -7.77 4.06 -7.57 4.28 -7.36 4.49 -7.16 4.66 -6.94 4.81 -6.72 4.94 -6.5 5.03 -6.27 5.11 -6.04 5.16 -5.8 5.18 -5.56 5.18 -5.31 5.15 -5.06 5.1 -4.8 5.01 -4.54 4.91 -4.28 4.78 -4.01 4.62 -3.73 4.43 -3.46 4.22 -3.17 3.99 -2.89 3.72 -2.6 3.44 -2.3 3.12 -2.01 2.78 -1.7 2.41 -1.39 2.02 -1.08 1.6 -0.77 1.17 -0.46 0.7 -0.11 0.17 -14.47 -9.1 0.22 -0.35 0.52 -0.81 0.85 -1.29 1.17 -1.74 1.49 -2.17 1.8 -2.56 2.12 -2.93 2.42 -3.28 2.73 -3.6 3.02 -3.89 3.31 -4.16 3.61 -4.41 3.9 -4.62 4.18 -4.81 4.46 -4.98 4.74 -5.12 5.01 -5.23 5.28 -5.32 5.55 -5.38 5.82 -5.42 6.07 -5.43 6.33 -5.41 6.59 -5.37 6.84 -5.3 7.09 -5.21 7.34 -5.08 7.58 -4.94 7.82 -4.76 8.06 -4.56 8.29 -4.33 8.52 -4.08 8.75 -3.79zm0 0c4.36,-1.79 9.36,0.29 11.15,4.66 1.79,4.36 -0.29,9.36 -4.66,11.15l-6.5 -15.81z"></path> </g> <g> <path class="fil0" d="M686.04 1243.75c-0.21,4.71 -4.21,8.36 -8.92,8.15 -4.71,-0.21 -8.36,-4.21 -8.15,-8.92l17.07 0.77zm193.46 -298.75l-0.74 17.08 0 0 -16.27 0.11 -15.24 1.7 -14.27 3.17 -13.36 4.54 -12.52 5.81 -11.72 6.98 -10.96 8.08 -10.24 9.08 -9.54 9.99 -8.86 10.8 -8.2 11.52 -7.56 12.12 -6.94 12.62 -6.34 13.01 -5.76 13.28 -5.2 13.44 -4.67 13.49 -4.17 13.43 -3.69 13.25 -3.24 12.96 -2.82 12.56 -2.42 12.05 -2.05 11.43 -1.71 10.69 -1.4 9.84 -1.12 8.88 -0.87 7.8 -0.64 6.62 -0.45 5.32 -0.28 3.92 -0.15 2.42 -0.04 0.73 -17.07 -0.77 0.05 -0.97 0.16 -2.57 0.3 -4.11 0.47 -5.53 0.67 -6.84 0.89 -8.04 1.15 -9.14 1.44 -10.12 1.76 -10.99 2.11 -11.75 2.49 -12.41 2.9 -12.95 3.35 -13.39 3.82 -13.72 4.33 -13.94 4.86 -14.05 5.44 -14.05 6.05 -13.94 6.69 -13.72 7.37 -13.4 8.09 -12.96 8.84 -12.42 9.64 -11.75 10.47 -10.97 11.35 -10.06 12.26 -9.03 13.2 -7.86 14.15 -6.56 15.12 -5.13 16.08 -3.57 17.04 -1.9 17.99 -0.12 0 0zm34.69 -39.82l8.2 -15 0 0 6.36 3.64 5.69 3.58 5.05 3.53 4.43 3.5 3.85 3.5 3.28 3.53 2.73 3.61 2.17 3.74 1.55 3.91 0.84 4.06 0.05 4.11 -0.76 3.98 -1.48 3.68 -2.06 3.28 -2.5 2.87 -2.83 2.52 -3.11 2.22 -3.36 1.97 -3.59 1.75 -3.8 1.56 -4 1.4 -4.18 1.24 -4.35 1.09 -4.5 0.95 -4.63 0.81 -4.75 0.67 -4.84 0.54 -4.92 0.4 -4.97 0.26 -5 0.13 -5.01 -0.01 -5 -0.15 0.74 -17.08 4.52 0.13 4.54 0.01 4.53 -0.12 4.49 -0.24 4.43 -0.36 4.34 -0.48 4.22 -0.6 4.07 -0.71 3.9 -0.82 3.68 -0.93 3.45 -1.02 3.17 -1.11 2.87 -1.18 2.53 -1.23 2.15 -1.26 1.75 -1.24 1.33 -1.18 0.92 -1.05 0.56 -0.87 0.29 -0.7 0.12 -0.62 -0.01 -0.71 -0.21 -1 -0.54 -1.36 -1.02 -1.75 -1.59 -2.09 -2.22 -2.38 -2.89 -2.62 -3.58 -2.83 -4.3 -3.01 -5.04 -3.17 -5.79 -3.31 0 0zm0 0c-4.14,-2.27 -5.66,-7.46 -3.4,-11.6 2.27,-4.14 7.46,-5.66 11.6,-3.4l-8.2 15zm-139.82 -13.83l-4.89 -16.38 0 0 5.03 -1.45 5 -1.33 4.99 -1.21 4.96 -1.09 4.94 -0.97 4.92 -0.85 4.9 -0.73 4.89 -0.61 4.87 -0.48 4.85 -0.36 4.83 -0.24 4.82 -0.11 4.81 0.01 4.79 0.14 4.77 0.26 4.76 0.39 4.75 0.52 4.74 0.65 4.72 0.78 4.71 0.91 4.7 1.04 4.69 1.16 4.68 1.3 4.67 1.43 4.66 1.55 4.65 1.69 4.65 1.81 4.64 1.94 4.63 2.08 4.63 2.2 4.62 2.33 4.62 2.46 -8.2 15 -4.29 -2.29 -4.28 -2.16 -4.27 -2.03 -4.26 -1.91 -4.26 -1.78 -4.25 -1.66 -4.25 -1.54 -4.25 -1.42 -4.25 -1.3 -4.25 -1.17 -4.25 -1.06 -4.26 -0.94 -4.26 -0.82 -4.27 -0.7 -4.28 -0.59 -4.29 -0.47 -4.3 -0.35 -4.32 -0.24 -4.34 -0.13 -4.35 -0.01 -4.37 0.1 -4.4 0.22 -4.43 0.33 -4.45 0.44 -4.47 0.56 -4.5 0.67 -4.53 0.79 -4.56 0.9 -4.59 1.01 -4.63 1.13 -4.67 1.24 -4.7 1.35 0 0zm0 0c-4.52,1.35 -9.28,-1.23 -10.63,-5.75 -1.35,-4.52 1.23,-9.28 5.75,-10.63l4.89 16.38zm-159.1 139.97l-11.04 -13.05 0 0 6.09 -5.28 5.84 -5.3 5.6 -5.31 5.39 -5.32 5.19 -5.32 5.01 -5.32 4.86 -5.3 4.72 -5.29 4.6 -5.26 4.5 -5.23 4.42 -5.19 4.36 -5.15 4.32 -5.09 4.3 -5.04 4.3 -4.96 4.32 -4.89 4.36 -4.81 4.41 -4.72 4.49 -4.61 4.59 -4.5 4.71 -4.38 4.86 -4.25 5.01 -4.11 5.18 -3.96 5.38 -3.79 5.59 -3.61 5.82 -3.42 6.06 -3.22 6.32 -3.01 6.6 -2.79 6.89 -2.56 7.19 -2.31 4.89 16.38 -6.48 2.09 -6.18 2.29 -5.89 2.49 -5.64 2.69 -5.4 2.87 -5.19 3.06 -5 3.23 -4.83 3.41 -4.69 3.58 -4.56 3.74 -4.45 3.9 -4.36 4.06 -4.29 4.21 -4.24 4.35 -4.21 4.49 -4.19 4.62 -4.19 4.74 -4.21 4.86 -4.25 4.97 -4.3 5.07 -4.37 5.16 -4.46 5.24 -4.57 5.31 -4.7 5.38 -4.85 5.43 -5.01 5.47 -5.2 5.51 -5.4 5.54 -5.62 5.55 -5.86 5.56 -6.12 5.56 -6.39 5.54 0 0zm-127.53 92.53l-14.93 -8.33 1.51 -2.35 1.74 -2.16 1.94 -2.07 2.15 -2.04 2.36 -2.05 2.57 -2.08 2.78 -2.13 2.98 -2.19 3.19 -2.26 3.39 -2.34 3.58 -2.42 3.76 -2.5 3.93 -2.59 4.1 -2.68 4.26 -2.77 4.41 -2.86 4.55 -2.96 4.67 -3.06 4.8 -3.16 4.91 -3.26 5.01 -3.36 5.1 -3.46 5.18 -3.57 5.25 -3.67 5.31 -3.78 5.36 -3.88 5.4 -3.99 5.43 -4.1 5.45 -4.21 5.46 -4.32 5.46 -4.44 5.45 -4.55 11.04 13.05 -5.63 4.7 -5.63 4.57 -5.63 4.45 -5.61 4.33 -5.58 4.21 -5.54 4.09 -5.49 3.97 -5.43 3.86 -5.36 3.74 -5.27 3.63 -5.18 3.52 -5.08 3.41 -4.97 3.3 -4.84 3.19 -4.71 3.08 -4.57 2.97 -4.41 2.86 -4.24 2.76 -4.06 2.65 -3.87 2.55 -3.67 2.44 -3.45 2.34 -3.23 2.23 -2.98 2.12 -2.73 2.01 -2.46 1.88 -2.17 1.76 -1.86 1.61 -1.52 1.44 -1.17 1.24 -0.79 0.98 -0.41 0.63zm0 0c-2.3,4.12 -7.51,5.6 -11.63,3.3 -4.12,-2.3 -5.6,-7.51 -3.3,-11.63l14.93 8.33z"></path> </g> <g> <path class="fil0" d="M443.05 1215.31c-1.66,4.42 -6.59,6.65 -11.01,4.99 -4.42,-1.66 -6.65,-6.59 -4.99,-11.01l16 6.02zm461.28 -407.1l-8.91 14.58 0 0 -15.12 -7.87 -15.4 -5.4 -15.69 -3.09 -16.01 -0.89 -16.34 1.2 -16.64 3.2 -16.91 5.11 -17.11 6.93 -17.26 8.65 -17.34 10.24 -17.36 11.72 -17.31 13.08 -17.21 14.31 -17.05 15.42 -16.83 16.39 -16.56 17.24 -16.23 17.96 -15.85 18.56 -15.43 19.02 -14.95 19.36 -14.42 19.56 -13.83 19.64 -13.21 19.59 -12.53 19.41 -11.8 19.1 -11.02 18.67 -10.19 18.09 -9.31 17.4 -8.38 16.57 -7.4 15.6 -6.37 14.49 -5.29 13.24 -16 -6.02 5.53 -13.84 6.59 -14.99 7.6 -16.01 8.57 -16.93 9.49 -17.73 10.36 -18.41 11.19 -18.96 11.98 -19.39 12.71 -19.7 13.4 -19.88 14.04 -19.93 14.64 -19.86 15.19 -19.67 15.69 -19.35 16.15 -18.9 16.57 -18.33 16.93 -17.64 17.26 -16.81 17.54 -15.87 17.79 -14.8 17.99 -13.59 18.16 -12.26 18.29 -10.8 18.4 -9.21 18.47 -7.48 18.5 -5.59 18.5 -3.55 18.44 -1.34 18.3 1.03 18.06 3.55 17.71 6.21 17.23 8.96 0 0zm84.39 150.82l-16.61 4.03 0 0 -0.83 -3.52 -0.84 -3.69 -0.85 -3.84 -0.88 -3.99 -0.92 -4.13 -0.96 -4.26 -1.02 -4.37 -1.09 -4.48 -1.16 -4.57 -1.25 -4.65 -1.34 -4.72 -1.45 -4.78 -1.56 -4.83 -1.68 -4.86 -1.81 -4.88 -1.95 -4.89 -2.09 -4.88 -2.25 -4.87 -2.41 -4.84 -2.59 -4.8 -2.77 -4.75 -2.96 -4.68 -3.16 -4.61 -3.36 -4.52 -3.58 -4.43 -3.8 -4.32 -4.04 -4.2 -4.29 -4.08 -4.54 -3.94 -4.81 -3.79 -5.09 -3.63 -5.38 -3.47 8.91 -14.58 6.06 3.91 5.75 4.11 5.44 4.29 5.14 4.46 4.84 4.61 4.56 4.75 4.29 4.87 4.02 4.98 3.77 5.07 3.52 5.15 3.29 5.2 3.06 5.25 2.85 5.29 2.65 5.31 2.46 5.31 2.28 5.31 2.11 5.28 1.95 5.25 1.8 5.21 1.66 5.15 1.53 5.07 1.42 4.98 1.31 4.89 1.21 4.77 1.13 4.64 1.05 4.5 0.99 4.34 0.93 4.18 0.88 3.99 0.84 3.79 0.81 3.58 0.79 3.34 0 0zm0 0c1.11,4.59 -1.71,9.21 -6.29,10.32 -4.59,1.11 -9.21,-1.71 -10.32,-6.29l16.61 -4.03zm52.76 221.84l-17.09 0.49 0 0 -0.33 -8 -0.54 -8.02 -0.73 -8.03 -0.91 -8.04 -1.08 -8.04 -1.23 -8.02 -1.37 -7.99 -1.51 -7.96 -1.63 -7.91 -1.74 -7.85 -1.84 -7.78 -1.92 -7.71 -1.99 -7.62 -2.05 -7.52 -2.1 -7.41 -2.14 -7.3 -2.16 -7.17 -2.17 -7.03 -2.17 -6.88 -2.16 -6.72 -2.13 -6.56 -2.1 -6.39 -2.05 -6.2 -1.99 -6.01 -1.91 -5.8 -1.83 -5.59 -1.73 -5.37 -1.62 -5.15 -1.5 -4.92 -1.37 -4.68 -1.23 -4.44 -1.07 -4.2 16.61 -4.03 0.98 3.83 1.15 4.15 1.31 4.46 1.45 4.75 1.58 5.02 1.7 5.29 1.81 5.54 1.9 5.78 1.99 6 2.05 6.22 2.11 6.42 2.15 6.62 2.18 6.8 2.2 6.97 2.2 7.13 2.19 7.29 2.18 7.43 2.14 7.57 2.1 7.69 2.04 7.8 1.97 7.91 1.89 8 1.79 8.09 1.68 8.17 1.56 8.23 1.43 8.29 1.28 8.33 1.12 8.38 0.95 8.4 0.76 8.42 0.57 8.44 0.35 8.43 0 0zm0 267.84l-17.09 -0.24 0.01 -0.52 0.02 -1.52 0.03 -2.47 0.04 -3.38 0.05 -4.23 0.06 -5.04 0.07 -5.79 0.07 -6.5 0.07 -7.16 0.08 -7.76 0.08 -8.32 0.08 -8.82 0.07 -9.27 0.07 -9.68 0.07 -10.04 0.06 -10.34 0.05 -10.6 0.05 -10.8 0.03 -10.96 0.02 -11.07 0.01 -11.13 -0 -11.13 -0.02 -11.09 -0.03 -10.99 -0.05 -10.85 -0.07 -10.65 -0.09 -10.41 -0.12 -10.11 -0.14 -9.77 -0.17 -9.37 -0.19 -8.92 -0.22 -8.43 17.09 -0.49 0.22 8.51 0.19 9 0.17 9.43 0.14 9.82 0.12 10.16 0.09 10.44 0.07 10.69 0.06 10.88 0.03 11.02 0.02 11.11 0 11.15 -0.01 11.15 -0.02 11.08 -0.03 10.98 -0.05 10.82 -0.06 10.61 -0.06 10.36 -0.07 10.05 -0.07 9.69 -0.07 9.29 -0.08 8.83 -0.08 8.33 -0.08 7.77 -0.07 7.16 -0.07 6.51 -0.07 5.8 -0.06 5.05 -0.05 4.24 -0.04 3.39 -0.03 2.48 -0.02 1.53 -0.01 0.52zm0 0c-0.06,4.72 -3.95,8.49 -8.66,8.43 -4.72,-0.06 -8.49,-3.95 -8.43,-8.66l17.09 0.24z"></path> </g> <g> <path class="fil0" d="M848.42 1454.5c-3.26,3.41 -8.67,3.53 -12.08,0.27 -3.41,-3.26 -3.53,-8.67 -0.27,-12.08l12.35 11.81zm3.71 -98.24l16.53 -4.37 0 0 1.41 5.83 1.12 5.7 0.85 5.56 0.59 5.41 0.34 5.26 0.12 5.11 -0.1 4.96 -0.3 4.79 -0.48 4.63 -0.65 4.46 -0.79 4.29 -0.93 4.12 -1.04 3.94 -1.14 3.76 -1.23 3.58 -1.29 3.39 -1.34 3.21 -1.38 3.02 -1.4 2.83 -1.4 2.64 -1.38 2.44 -1.35 2.25 -1.31 2.05 -1.25 1.86 -1.17 1.65 -1.07 1.45 -0.97 1.25 -0.84 1.04 -0.7 0.83 -0.54 0.62 -0.37 0.41 -0.23 0.25 -12.35 -11.81 -0.04 0.05 0.19 -0.21 0.35 -0.4 0.5 -0.59 0.63 -0.78 0.74 -0.96 0.85 -1.15 0.94 -1.33 1.02 -1.51 1.08 -1.69 1.13 -1.87 1.15 -2.04 1.17 -2.21 1.17 -2.37 1.16 -2.54 1.13 -2.71 1.09 -2.86 1.04 -3.02 0.97 -3.18 0.88 -3.33 0.78 -3.49 0.67 -3.64 0.55 -3.79 0.41 -3.94 0.25 -4.09 0.09 -4.23 -0.09 -4.38 -0.3 -4.53 -0.51 -4.68 -0.73 -4.83 -0.98 -4.97 -1.24 -5.13 0 0zm-131.09 -51.96l-5.17 -16.3 0 0 5.22 -1.53 5.34 -1.33 5.44 -1.13 5.53 -0.92 5.6 -0.72 5.66 -0.51 5.7 -0.3 5.74 -0.09 5.76 0.13 5.76 0.34 5.75 0.56 5.73 0.79 5.7 1.01 5.64 1.24 5.58 1.47 5.5 1.71 5.4 1.96 5.29 2.2 5.16 2.45 5.02 2.71 4.86 2.97 4.68 3.24 4.49 3.51 4.27 3.79 4.04 4.07 3.78 4.35 3.5 4.63 3.21 4.91 2.89 5.19 2.54 5.46 2.19 5.73 1.81 5.99 -16.53 4.37 -1.46 -4.84 -1.75 -4.59 -2.03 -4.35 -2.29 -4.12 -2.55 -3.9 -2.8 -3.69 -3.03 -3.48 -3.26 -3.28 -3.47 -3.08 -3.68 -2.88 -3.88 -2.68 -4.06 -2.48 -4.23 -2.28 -4.39 -2.08 -4.53 -1.89 -4.66 -1.69 -4.77 -1.49 -4.87 -1.29 -4.95 -1.09 -5.02 -0.89 -5.07 -0.69 -5.1 -0.5 -5.12 -0.3 -5.12 -0.11 -5.11 0.08 -5.07 0.27 -5.02 0.45 -4.96 0.63 -4.88 0.82 -4.77 0.99 -4.66 1.16 -4.53 1.33 0 0zm-115.86 15.42l0 -17.09 1.04 0 1.25 0.01 1.48 0.01 1.69 0.01 1.9 -0 2.11 -0.01 2.31 -0.02 2.5 -0.04 2.68 -0.06 2.86 -0.08 3.03 -0.11 3.19 -0.14 3.34 -0.17 3.48 -0.21 3.62 -0.25 3.74 -0.29 3.87 -0.34 3.98 -0.39 4.08 -0.44 4.17 -0.5 4.26 -0.56 4.34 -0.62 4.4 -0.69 4.47 -0.76 4.52 -0.83 4.56 -0.9 4.6 -0.99 4.63 -1.07 4.65 -1.15 4.65 -1.24 4.66 -1.33 4.65 -1.43 5.17 16.3 -4.97 1.52 -4.96 1.42 -4.95 1.32 -4.92 1.22 -4.89 1.13 -4.86 1.04 -4.81 0.95 -4.75 0.87 -4.69 0.8 -4.62 0.72 -4.54 0.65 -4.46 0.59 -4.36 0.52 -4.26 0.46 -4.15 0.41 -4.03 0.36 -3.91 0.3 -3.77 0.26 -3.63 0.22 -3.48 0.18 -3.32 0.15 -3.15 0.12 -2.98 0.09 -2.79 0.06 -2.6 0.04 -2.4 0.02 -2.18 0.01 -1.98 0 -1.74 -0.01 -1.49 -0.01 -1.25 -0.01 -0.97 -0zm0 0c-4.72,0 -8.55,-3.83 -8.55,-8.55 0,-4.72 3.83,-8.55 8.55,-8.55l0 17.09z"></path> </g> <g> <path class="fil0" d="M562.79 1423.68c4.67,-0.68 9.01,2.56 9.69,7.23 0.68,4.67 -2.56,9.01 -7.23,9.69l-2.46 -16.91zm-86.55 -3.47l12.38 -11.79 0 0 -0.01 -0.01 0.38 0.29 0.69 0.46 0.98 0.58 1.21 0.67 1.42 0.72 1.61 0.76 1.78 0.79 1.94 0.81 2.09 0.83 2.23 0.83 2.35 0.84 2.46 0.83 2.56 0.81 2.66 0.79 2.74 0.77 2.81 0.74 2.88 0.7 2.93 0.66 2.97 0.61 3.01 0.56 3.03 0.5 3.05 0.43 3.05 0.37 3.04 0.29 3.03 0.21 3 0.13 2.97 0.04 2.92 -0.04 2.85 -0.14 2.79 -0.24 2.71 -0.34 2.46 16.91 -3.39 0.42 -3.42 0.29 -3.45 0.17 -3.46 0.06 -3.47 -0.05 -3.48 -0.15 -3.47 -0.25 -3.46 -0.33 -3.44 -0.41 -3.41 -0.49 -3.38 -0.56 -3.34 -0.62 -3.3 -0.68 -3.24 -0.72 -3.17 -0.77 -3.1 -0.81 -3.02 -0.85 -2.94 -0.87 -2.85 -0.9 -2.74 -0.92 -2.63 -0.93 -2.52 -0.94 -2.4 -0.95 -2.27 -0.95 -2.14 -0.95 -2 -0.95 -1.87 -0.95 -1.73 -0.95 -1.6 -0.96 -1.5 -1.01 -1.42 -1.1 -1.39 -1.3 0 0zm-49.1 -45.37l11.16 -12.94 0 -0 1.74 1.51 1.78 1.55 1.81 1.58 1.83 1.62 1.86 1.65 1.88 1.67 1.88 1.69 1.89 1.7 1.9 1.72 1.89 1.72 1.89 1.72 1.88 1.72 1.86 1.71 1.84 1.7 1.82 1.68 1.79 1.66 1.75 1.63 1.71 1.6 1.67 1.56 1.62 1.53 1.56 1.48 1.5 1.43 1.45 1.38 1.38 1.32 1.31 1.26 1.23 1.19 1.15 1.12 1.06 1.04 0.98 0.97 0.89 0.9 0.79 0.81 0.71 0.73 -12.38 11.79 -0.57 -0.59 -0.7 -0.72 -0.81 -0.81 -0.91 -0.91 -1.02 -1 -1.11 -1.08 -1.19 -1.15 -1.27 -1.23 -1.34 -1.29 -1.42 -1.35 -1.48 -1.41 -1.54 -1.46 -1.59 -1.5 -1.65 -1.54 -1.69 -1.58 -1.73 -1.61 -1.76 -1.64 -1.79 -1.66 -1.82 -1.68 -1.84 -1.69 -1.85 -1.7 -1.86 -1.7 -1.87 -1.7 -1.87 -1.69 -1.87 -1.68 -1.86 -1.67 -1.84 -1.64 -1.82 -1.61 -1.8 -1.59 -1.77 -1.56 -1.74 -1.51 -1.7 -1.47 0 -0zm-38.7 -49.68l15.42 -7.37 0 0 0.28 0.56 0.35 0.68 0.43 0.8 0.5 0.9 0.56 0.99 0.63 1.07 0.68 1.14 0.74 1.21 0.8 1.28 0.85 1.33 0.91 1.4 0.95 1.44 1 1.48 1.05 1.52 1.1 1.56 1.14 1.58 1.18 1.61 1.22 1.63 1.25 1.64 1.29 1.65 1.33 1.65 1.36 1.65 1.38 1.64 1.41 1.63 1.44 1.61 1.46 1.59 1.49 1.57 1.5 1.54 1.52 1.5 1.53 1.46 1.55 1.42 1.55 1.37 -11.16 12.94 -1.83 -1.61 -1.79 -1.65 -1.77 -1.69 -1.73 -1.72 -1.7 -1.74 -1.67 -1.76 -1.64 -1.78 -1.6 -1.8 -1.56 -1.8 -1.53 -1.81 -1.49 -1.81 -1.45 -1.8 -1.41 -1.8 -1.37 -1.78 -1.32 -1.77 -1.28 -1.74 -1.24 -1.72 -1.19 -1.69 -1.14 -1.65 -1.09 -1.61 -1.04 -1.57 -0.99 -1.52 -0.94 -1.47 -0.88 -1.42 -0.83 -1.35 -0.78 -1.29 -0.71 -1.22 -0.66 -1.16 -0.6 -1.08 -0.55 -1.02 -0.49 -0.96 -0.43 -0.89 0 0zm-18.49 2.09l4.25 -16.55 -4.02 -0.06 0.14 -0.03 0.24 -0.05 0.29 -0.06 0.43 -0.09 0.55 -0.11 0.63 -0.12 0.72 -0.13 0.79 -0.13 0.86 -0.14 0.93 -0.14 0.99 -0.13 1.04 -0.13 1.09 -0.12 1.14 -0.11 1.18 -0.09 1.21 -0.07 1.23 -0.05 1.26 -0.02 1.29 0.01 1.3 0.05 1.32 0.09 1.35 0.15 1.37 0.21 1.38 0.29 1.4 0.38 1.44 0.5 1.45 0.64 1.48 0.82 1.46 1.05 1.39 1.29 1.27 1.57 1.05 1.81 -15.42 7.37 0.3 0.53 0.34 0.42 0.29 0.28 0.2 0.15 0.06 0.04 -0.09 -0.04 -0.22 -0.08 -0.37 -0.09 -0.48 -0.1 -0.57 -0.09 -0.65 -0.07 -0.72 -0.05 -0.78 -0.03 -0.81 -0.01 -0.85 0.01 -0.87 0.03 -0.88 0.05 -0.87 0.07 -0.86 0.08 -0.85 0.09 -0.82 0.1 -0.79 0.11 -0.74 0.11 -0.69 0.11 -0.64 0.1 -0.56 0.1 -0.49 0.09 -0.4 0.08 -0.33 0.07 -0.27 0.06 -0.11 0.02 0.02 -0 -4.02 -0.06zm-37.75 -69.62l16.65 3.86 0 0 -0.8 3.96 -0.53 3.71 -0.27 3.47 -0.05 3.24 0.16 3.02 0.35 2.82 0.51 2.62 0.66 2.44 0.8 2.28 0.92 2.13 1.03 1.98 1.12 1.85 1.21 1.73 1.29 1.62 1.35 1.5 1.39 1.39 1.44 1.29 1.46 1.19 1.46 1.09 1.45 0.99 1.43 0.88 1.39 0.79 1.33 0.7 1.25 0.6 1.16 0.52 1.04 0.43 0.91 0.35 0.77 0.27 0.59 0.2 0.41 0.13 0.22 0.06 -0.08 -0.02 -4.25 16.55 -0.32 -0.08 -0.49 -0.14 -0.73 -0.23 -0.95 -0.31 -1.12 -0.4 -1.31 -0.5 -1.47 -0.61 -1.6 -0.72 -1.73 -0.84 -1.83 -0.96 -1.92 -1.09 -1.99 -1.24 -2.04 -1.38 -2.07 -1.53 -2.08 -1.7 -2.08 -1.87 -2.05 -2.05 -2 -2.23 -1.92 -2.42 -1.83 -2.62 -1.71 -2.82 -1.56 -3.02 -1.39 -3.22 -1.2 -3.42 -0.98 -3.63 -0.74 -3.81 -0.49 -4 -0.22 -4.19 0.06 -4.36 0.36 -4.55 0.67 -4.73 0.99 -4.9 0 0zm83.45 -55.64l-1.52 17.03 0 0 -1.78 -0.14 -1.9 -0.11 -2.01 -0.08 -2.1 -0.03 -2.18 0.02 -2.25 0.08 -2.32 0.14 -2.36 0.21 -2.4 0.29 -2.43 0.37 -2.45 0.46 -2.46 0.55 -2.45 0.65 -2.44 0.76 -2.42 0.87 -2.39 0.98 -2.35 1.1 -2.31 1.23 -2.25 1.36 -2.2 1.5 -2.13 1.64 -2.07 1.79 -1.99 1.96 -1.91 2.13 -1.84 2.32 -1.75 2.51 -1.65 2.72 -1.55 2.95 -1.43 3.18 -1.31 3.43 -1.17 3.69 -1.03 3.97 -16.65 -3.86 1.26 -4.84 1.46 -4.59 1.66 -4.35 1.85 -4.11 2.03 -3.87 2.2 -3.63 2.36 -3.39 2.5 -3.16 2.63 -2.93 2.75 -2.69 2.84 -2.47 2.93 -2.25 3 -2.04 3.05 -1.84 3.09 -1.65 3.12 -1.46 3.14 -1.29 3.14 -1.12 3.13 -0.97 3.11 -0.83 3.08 -0.69 3.04 -0.57 2.99 -0.45 2.93 -0.35 2.86 -0.25 2.78 -0.17 2.7 -0.09 2.6 -0.02 2.49 0.04 2.38 0.09 2.25 0.13 2.13 0.17 0 0zm68.28 24.71l-4.91 16.37 0 0 -1.74 -0.55 -1.78 -0.62 -1.81 -0.67 -1.87 -0.72 -1.92 -0.77 -1.96 -0.82 -2 -0.85 -2.05 -0.89 -2.08 -0.92 -2.12 -0.94 -2.15 -0.96 -2.17 -0.97 -2.2 -0.98 -2.22 -0.99 -2.23 -0.99 -2.24 -0.98 -2.24 -0.97 -2.24 -0.95 -2.24 -0.93 -2.22 -0.9 -2.2 -0.86 -2.18 -0.83 -2.15 -0.78 -2.12 -0.73 -2.08 -0.68 -2.02 -0.62 -1.97 -0.55 -1.91 -0.48 -1.82 -0.41 -1.75 -0.33 -1.65 -0.25 -1.55 -0.17 1.52 -17.03 2.29 0.25 2.3 0.36 2.32 0.44 2.33 0.52 2.34 0.59 2.35 0.66 2.37 0.72 2.37 0.77 2.38 0.82 2.39 0.87 2.38 0.9 2.39 0.93 2.38 0.96 2.36 0.98 2.35 0.99 2.34 1.01 2.31 1.01 2.29 1.01 2.25 1 2.22 0.99 2.17 0.98 2.13 0.95 2.07 0.92 2.02 0.89 1.95 0.85 1.88 0.8 1.81 0.75 1.71 0.69 1.63 0.63 1.53 0.56 1.4 0.49 1.28 0.4 0 0zm58.19 25.62l-13.75 10.15 0 0 -0.58 -0.72 -0.67 -0.73 -0.79 -0.75 -0.9 -0.76 -1.01 -0.77 -1.11 -0.76 -1.21 -0.76 -1.3 -0.75 -1.39 -0.74 -1.47 -0.72 -1.53 -0.7 -1.61 -0.68 -1.66 -0.67 -1.71 -0.64 -1.76 -0.63 -1.79 -0.61 -1.82 -0.59 -1.85 -0.57 -1.87 -0.56 -1.88 -0.54 -1.89 -0.53 -1.88 -0.51 -1.88 -0.5 -1.87 -0.49 -1.85 -0.48 -1.83 -0.47 -1.8 -0.47 -1.77 -0.46 -1.73 -0.46 -1.7 -0.46 -1.65 -0.46 -1.6 -0.47 4.91 -16.37 1.4 0.41 1.49 0.42 1.57 0.43 1.66 0.44 1.72 0.45 1.78 0.46 1.83 0.47 1.88 0.49 1.92 0.5 1.95 0.52 1.99 0.54 2 0.56 2.02 0.58 2.04 0.61 2.04 0.63 2.05 0.66 2.04 0.69 2.03 0.72 2.02 0.76 2 0.8 1.97 0.84 1.96 0.89 1.91 0.94 1.88 1 1.84 1.06 1.8 1.13 1.74 1.2 1.68 1.28 1.62 1.37 1.54 1.47 1.46 1.59 1.35 1.7 0 0zm32.1 25.95l-7.93 15.14 0 0 -0.75 -0.4 -0.81 -0.44 -0.87 -0.49 -0.91 -0.53 -0.97 -0.57 -1.02 -0.62 -1.06 -0.65 -1.1 -0.7 -1.15 -0.73 -1.18 -0.78 -1.22 -0.81 -1.25 -0.85 -1.27 -0.88 -1.3 -0.92 -1.31 -0.95 -1.33 -0.98 -1.34 -1.02 -1.35 -1.05 -1.35 -1.08 -1.35 -1.1 -1.36 -1.14 -1.34 -1.16 -1.34 -1.19 -1.32 -1.22 -1.3 -1.24 -1.29 -1.27 -1.26 -1.29 -1.23 -1.32 -1.2 -1.35 -1.17 -1.37 -1.13 -1.4 -1.09 -1.43 13.75 -10.15 0.78 1.03 0.84 1.04 0.89 1.05 0.94 1.05 0.98 1.05 1.02 1.05 1.05 1.04 1.09 1.04 1.11 1.03 1.14 1.01 1.16 1 1.17 0.98 1.19 0.97 1.19 0.95 1.19 0.92 1.19 0.9 1.18 0.88 1.17 0.85 1.15 0.82 1.14 0.79 1.11 0.76 1.09 0.73 1.05 0.69 1.02 0.65 0.98 0.62 0.93 0.58 0.88 0.53 0.83 0.49 0.77 0.45 0.69 0.39 0.63 0.34 0.55 0.29 0 0zm47.32 35.83l-11.91 12.27 0 0 -0.93 -0.89 -1.05 -0.96 -1.15 -1.03 -1.24 -1.09 -1.33 -1.14 -1.4 -1.18 -1.46 -1.21 -1.52 -1.24 -1.57 -1.27 -1.61 -1.29 -1.64 -1.3 -1.67 -1.3 -1.69 -1.31 -1.7 -1.3 -1.7 -1.29 -1.7 -1.28 -1.69 -1.26 -1.66 -1.23 -1.64 -1.2 -1.61 -1.17 -1.56 -1.12 -1.51 -1.08 -1.45 -1.02 -1.39 -0.97 -1.32 -0.91 -1.23 -0.83 -1.14 -0.76 -1.03 -0.67 -0.91 -0.58 -0.79 -0.48 -0.62 -0.37 -0.41 -0.23 7.93 -15.14 0.94 0.52 0.97 0.57 1.03 0.63 1.12 0.71 1.19 0.78 1.26 0.84 1.34 0.91 1.41 0.96 1.47 1.02 1.53 1.08 1.58 1.13 1.63 1.17 1.66 1.21 1.7 1.24 1.73 1.28 1.74 1.3 1.75 1.32 1.76 1.34 1.76 1.35 1.75 1.35 1.74 1.36 1.71 1.35 1.68 1.34 1.65 1.33 1.61 1.32 1.56 1.29 1.51 1.27 1.44 1.24 1.38 1.21 1.31 1.18 1.24 1.14 1.16 1.1 0 0zm45.19 61.87l-16.63 -3.94 -0.07 0.45 -0.01 0.06 -0.07 -0.34 -0.21 -0.68 -0.38 -0.95 -0.56 -1.16 -0.73 -1.32 -0.89 -1.47 -1.05 -1.58 -1.18 -1.67 -1.31 -1.74 -1.42 -1.8 -1.51 -1.84 -1.6 -1.89 -1.67 -1.9 -1.73 -1.92 -1.77 -1.93 -1.81 -1.92 -1.84 -1.91 -1.84 -1.89 -1.85 -1.86 -1.83 -1.82 -1.81 -1.78 -1.77 -1.73 -1.73 -1.67 -1.67 -1.6 -1.59 -1.52 -1.52 -1.45 -1.42 -1.35 -1.33 -1.26 -1.22 -1.17 -1.1 -1.06 11.91 -12.27 1.03 1 1.18 1.13 1.31 1.25 1.43 1.36 1.53 1.46 1.62 1.55 1.7 1.64 1.77 1.71 1.83 1.78 1.87 1.85 1.9 1.89 1.93 1.95 1.94 1.99 1.94 2.02 1.93 2.04 1.91 2.07 1.87 2.08 1.84 2.09 1.78 2.09 1.72 2.09 1.65 2.09 1.56 2.08 1.47 2.08 1.37 2.07 1.26 2.07 1.14 2.09 1.01 2.11 0.86 2.16 0.68 2.27 0.44 2.41 0.11 2.62 -0.38 2.79zm0 0c-1.09,4.59 -5.69,7.43 -10.29,6.35 -4.59,-1.09 -7.43,-5.69 -6.35,-10.29l16.63 3.94z"></path> </g> <g> <path class="fil0" d="M545.69 1314.44c4.58,-1.14 9.22,1.64 10.36,6.22 1.14,4.58 -1.64,9.22 -6.22,10.36l-4.15 -16.58zm26.84 27.05l-10.15 13.76 0 0 -2.88 -2.16 -2.65 -2.06 -2.43 -1.95 -2.23 -1.86 -2.03 -1.77 -1.85 -1.69 -1.67 -1.61 -1.51 -1.54 -1.36 -1.48 -1.21 -1.42 -1.08 -1.39 -0.96 -1.36 -0.84 -1.35 -0.73 -1.36 -0.62 -1.39 -0.5 -1.44 -0.36 -1.48 -0.2 -1.56 -0.01 -1.64 0.21 -1.6 0.43 -1.57 0.64 -1.46 0.77 -1.27 0.88 -1.1 0.91 -0.89 0.88 -0.69 0.8 -0.52 0.75 -0.41 0.66 -0.3 0.52 -0.21 0.54 -0.18 0.45 -0.13 4.15 16.58 0.39 -0.11 0.36 -0.12 0.26 -0.1 0.31 -0.15 0.36 -0.2 0.37 -0.25 0.43 -0.34 0.47 -0.47 0.47 -0.59 0.41 -0.67 0.33 -0.77 0.21 -0.77 0.09 -0.7 -0 -0.61 -0.05 -0.42 -0.05 -0.21 -0.01 -0.04 0.07 0.15 0.18 0.33 0.31 0.49 0.45 0.63 0.61 0.78 0.78 0.91 0.95 1.04 1.14 1.16 1.33 1.28 1.53 1.4 1.74 1.52 1.97 1.64 2.19 1.76 2.43 1.88 2.68 2.01 0 0zm35.5 33.76l-9.24 14.38 0 0 -0.94 -0.66 -0.85 -0.69 -0.77 -0.71 -0.66 -0.69 -0.59 -0.67 -0.54 -0.66 -0.5 -0.64 -0.47 -0.63 -0.47 -0.63 -0.47 -0.64 -0.5 -0.66 -0.52 -0.69 -0.56 -0.72 -0.61 -0.77 -0.67 -0.81 -0.73 -0.86 -0.81 -0.92 -0.89 -0.99 -0.98 -1.05 -1.07 -1.11 -1.18 -1.18 -1.29 -1.25 -1.4 -1.32 -1.53 -1.4 -1.65 -1.47 -1.79 -1.55 -1.94 -1.63 -2.08 -1.71 -2.24 -1.79 -2.4 -1.87 -2.57 -1.96 -2.74 -2.04 10.15 -13.76 2.89 2.15 2.72 2.07 2.55 1.99 2.4 1.92 2.25 1.85 2.1 1.77 1.97 1.7 1.84 1.63 1.71 1.57 1.59 1.5 1.47 1.44 1.37 1.37 1.26 1.31 1.17 1.25 1.07 1.18 0.99 1.13 0.91 1.07 0.83 1.01 0.75 0.94 0.68 0.88 0.61 0.81 0.55 0.73 0.49 0.66 0.43 0.58 0.37 0.48 0.3 0.39 0.23 0.28 0.16 0.19 0.08 0.08 -0.01 -0.01 -0.08 -0.06 -0.15 -0.1 0 0zm38.24 53.07l-15.71 -6.73 -0.36 1.26 -0.04 0.77 0.02 0.19 -0.08 -0.27 -0.25 -0.62 -0.44 -0.88 -0.61 -1.07 -0.78 -1.23 -0.93 -1.35 -1.06 -1.44 -1.18 -1.51 -1.28 -1.57 -1.36 -1.6 -1.44 -1.63 -1.49 -1.65 -1.53 -1.65 -1.57 -1.64 -1.58 -1.62 -1.59 -1.59 -1.58 -1.55 -1.55 -1.49 -1.51 -1.43 -1.47 -1.36 -1.4 -1.29 -1.32 -1.19 -1.23 -1.09 -1.12 -0.97 -1 -0.85 -0.85 -0.7 -0.68 -0.54 -0.44 -0.34 -0.07 -0.06 9.24 -14.38 0.92 0.63 0.87 0.66 0.95 0.76 1.05 0.87 1.15 0.98 1.25 1.09 1.35 1.19 1.43 1.29 1.51 1.38 1.57 1.46 1.63 1.54 1.67 1.61 1.69 1.66 1.71 1.71 1.71 1.75 1.71 1.78 1.69 1.81 1.66 1.83 1.62 1.84 1.57 1.85 1.51 1.85 1.44 1.85 1.36 1.84 1.27 1.84 1.17 1.84 1.06 1.87 0.94 1.91 0.8 2 0.62 2.17 0.36 2.42 -0.1 2.78 -0.85 3.03zm0 0c-1.86,4.34 -6.88,6.35 -11.22,4.49 -4.34,-1.86 -6.35,-6.88 -4.49,-11.22l15.71 6.73z"></path> </g> <g> <path class="fil0" d="M534.02 1267.87c-4.36,-1.81 -6.42,-6.81 -4.61,-11.17 1.81,-4.36 6.81,-6.42 11.17,-4.61l-6.56 15.79zm50.91 2.95l-6.8 15.68 -0 0 -1.57 -0.68 -1.64 -0.7 -1.68 -0.72 -1.73 -0.74 -1.77 -0.76 -1.79 -0.77 -1.82 -0.77 -1.84 -0.78 -1.84 -0.78 -1.85 -0.78 -1.85 -0.78 -1.83 -0.77 -1.81 -0.76 -1.78 -0.75 -1.74 -0.73 -1.71 -0.72 -1.66 -0.7 -1.6 -0.67 -1.54 -0.64 -1.47 -0.61 -1.39 -0.58 -1.31 -0.55 -1.22 -0.51 -1.12 -0.47 -1.01 -0.42 -0.9 -0.38 -0.79 -0.33 -0.64 -0.27 -0.52 -0.21 -0.42 -0.17 -0.21 -0.09 -0.07 -0.03 6.56 -15.79 0.09 0.04 0.25 0.11 0.35 0.15 0.53 0.22 0.67 0.28 0.78 0.33 0.91 0.38 1.02 0.43 1.12 0.47 1.22 0.51 1.31 0.55 1.39 0.58 1.47 0.61 1.55 0.65 1.61 0.67 1.66 0.7 1.71 0.72 1.75 0.74 1.79 0.75 1.81 0.77 1.84 0.78 1.85 0.78 1.86 0.78 1.86 0.79 1.84 0.78 1.83 0.78 1.81 0.77 1.78 0.76 1.74 0.74 1.71 0.73 1.65 0.71 1.6 0.69 -0 0zm21.23 7.72l-6.58 15.77 -0.62 -0.25 -0.62 -0.25 -0.63 -0.25 -0.65 -0.25 -0.65 -0.24 -0.67 -0.25 -0.68 -0.25 -0.67 -0.24 -0.68 -0.24 -0.69 -0.24 -0.7 -0.24 -0.69 -0.24 -0.7 -0.24 -0.7 -0.24 -0.7 -0.24 -0.7 -0.24 -0.69 -0.24 -0.7 -0.24 -0.69 -0.24 -0.7 -0.24 -0.69 -0.24 -0.68 -0.23 -0.69 -0.24 -0.67 -0.24 -0.67 -0.24 -0.67 -0.25 -0.65 -0.24 -0.65 -0.25 -0.65 -0.26 -0.64 -0.26 -0.62 -0.26 -0.62 -0.26 6.8 -15.68 0.43 0.18 0.47 0.19 0.48 0.19 0.5 0.2 0.53 0.2 0.56 0.21 0.56 0.21 0.59 0.21 0.61 0.22 0.61 0.21 0.65 0.22 0.65 0.23 0.66 0.22 0.68 0.23 0.68 0.23 0.7 0.24 0.71 0.24 0.71 0.24 0.72 0.24 0.73 0.25 0.74 0.25 0.74 0.26 0.73 0.26 0.76 0.27 0.76 0.27 0.74 0.27 0.75 0.28 0.76 0.29 0.75 0.29 0.76 0.3 0.76 0.31 0.74 0.31zm0 0c4.35,1.81 6.41,6.82 4.6,11.18 -1.81,4.35 -6.82,6.41 -11.18,4.6l6.58 -15.77z"></path> </g> <g> <path class="fil0" d="M395.03 1204.78c3.73,2.89 4.42,8.26 1.53,11.99 -2.89,3.73 -8.26,4.42 -11.99,1.53l10.46 -13.52zm-63 -19.4l5.07 -16.32 0 0 2.14 0.72 2.17 0.84 2.2 0.94 2.24 1.04 2.27 1.13 2.31 1.21 2.34 1.28 2.36 1.34 2.37 1.39 2.38 1.44 2.38 1.47 2.37 1.5 2.35 1.52 2.32 1.52 2.28 1.52 2.24 1.52 2.18 1.5 2.11 1.47 2.03 1.43 1.95 1.38 1.86 1.33 1.74 1.26 1.63 1.19 1.5 1.11 1.36 1.01 1.22 0.91 1.06 0.8 0.89 0.67 0.72 0.55 0.52 0.4 0.31 0.24 0.14 0.11 -10.46 13.52 -0.07 -0.06 -0.31 -0.24 -0.5 -0.38 -0.67 -0.51 -0.86 -0.65 -1.02 -0.77 -1.18 -0.88 -1.32 -0.98 -1.45 -1.07 -1.58 -1.15 -1.69 -1.22 -1.79 -1.28 -1.88 -1.34 -1.96 -1.38 -2.03 -1.42 -2.09 -1.44 -2.14 -1.45 -2.18 -1.46 -2.21 -1.45 -2.22 -1.44 -2.23 -1.41 -2.22 -1.38 -2.21 -1.33 -2.18 -1.28 -2.13 -1.21 -2.07 -1.13 -2.01 -1.05 -1.92 -0.95 -1.81 -0.84 -1.69 -0.73 -1.54 -0.6 -1.37 -0.46 0 0zm-40.54 -28.7l3.56 16.72 0.55 -16.58 0.06 0.02 0.23 0.07 0.3 0.09 0.45 0.13 0.56 0.16 0.66 0.19 0.79 0.22 0.88 0.25 0.97 0.28 1.06 0.3 1.14 0.33 1.23 0.35 1.29 0.38 1.37 0.4 1.43 0.41 1.48 0.43 1.54 0.45 1.59 0.46 1.63 0.48 1.67 0.49 1.71 0.5 1.73 0.51 1.75 0.52 1.77 0.53 1.79 0.53 1.79 0.53 1.8 0.54 1.79 0.54 1.78 0.54 1.77 0.54 1.75 0.54 1.73 0.54 -5.07 16.32 -1.7 -0.52 -1.72 -0.53 -1.74 -0.53 -1.76 -0.53 -1.77 -0.54 -1.77 -0.53 -1.77 -0.53 -1.77 -0.53 -1.75 -0.52 -1.75 -0.51 -1.72 -0.51 -1.69 -0.5 -1.66 -0.49 -1.62 -0.47 -1.57 -0.46 -1.53 -0.44 -1.48 -0.43 -1.42 -0.41 -1.35 -0.39 -1.29 -0.37 -1.21 -0.35 -1.14 -0.33 -1.05 -0.3 -0.97 -0.28 -0.87 -0.25 -0.76 -0.22 -0.67 -0.19 -0.55 -0.16 -0.44 -0.13 -0.34 -0.1 -0.17 -0.05 -0.07 -0.02 0.55 -16.58zm28.21 1.22l-7.16 15.52 -0 0 -0.32 -0.13 -0.39 -0.14 -0.45 -0.14 -0.51 -0.13 -0.57 -0.12 -0.63 -0.11 -0.66 -0.09 -0.69 -0.07 -0.72 -0.06 -0.75 -0.04 -0.76 -0.02 -0.78 -0.01 -0.78 0.01 -0.78 0.02 -0.78 0.03 -0.77 0.04 -0.74 0.06 -0.73 0.06 -0.72 0.07 -0.67 0.07 -0.64 0.08 -0.6 0.08 -0.57 0.08 -0.52 0.08 -0.46 0.07 -0.42 0.07 -0.35 0.06 -0.29 0.05 -0.23 0.04 -0.13 0.02 -0.11 0.02 0.02 -0 -3.56 -16.72 0.11 -0.02 0.14 -0.03 0.28 -0.06 0.33 -0.06 0.41 -0.08 0.48 -0.08 0.53 -0.09 0.62 -0.1 0.66 -0.1 0.72 -0.1 0.78 -0.1 0.83 -0.1 0.87 -0.1 0.89 -0.09 0.95 -0.08 1 -0.07 1.02 -0.06 1.04 -0.05 1.08 -0.03 1.1 -0.01 1.12 0.01 1.14 0.04 1.15 0.06 1.18 0.09 1.2 0.13 1.2 0.17 1.2 0.21 1.23 0.26 1.24 0.31 1.24 0.38 1.24 0.45 1.25 0.53 -0 0zm-63.23 -10.64l-1.98 -16.98 0 0 4.85 -0.45 4.7 -0.19 4.54 0.04 4.39 0.26 4.22 0.47 4.05 0.66 3.88 0.84 3.71 1 3.53 1.15 3.36 1.27 3.18 1.38 3 1.48 2.82 1.56 2.64 1.62 2.47 1.67 2.29 1.7 2.11 1.71 1.94 1.72 1.77 1.71 1.59 1.69 1.43 1.66 1.27 1.63 1.11 1.61 0.96 1.59 0.83 1.65 0.68 1.8 0.49 2.21 -0.1 3.22 -2.25 4.51 -4.98 2.8 -3.97 -0.04 -2.47 -0.83 7.16 -15.52 -1.11 -0.36 -2.95 -0.01 -4.3 2.43 -1.91 3.76 -0.09 2.12 0.16 0.79 0.03 0.09 -0.17 -0.32 -0.36 -0.6 -0.55 -0.79 -0.72 -0.93 -0.9 -1.04 -1.06 -1.12 -1.22 -1.18 -1.37 -1.22 -1.54 -1.25 -1.69 -1.25 -1.84 -1.24 -1.99 -1.22 -2.14 -1.18 -2.29 -1.12 -2.43 -1.06 -2.58 -0.98 -2.74 -0.89 -2.88 -0.78 -3.04 -0.66 -3.2 -0.52 -3.35 -0.38 -3.51 -0.21 -3.68 -0.03 -3.84 0.16 -4.01 0.37 0 0zm-33.92 158.84l-7.29 15.46 -0.78 -0.42 -10 -6.54 -8.89 -6.83 -7.79 -7.09 -6.73 -7.34 -5.69 -7.56 -4.68 -7.74 -3.69 -7.89 -2.74 -7.99 -1.81 -8.04 -0.94 -8.03 -0.11 -7.97 0.65 -7.88 1.35 -7.74 2 -7.58 2.58 -7.39 3.11 -7.18 3.58 -6.95 4 -6.7 4.37 -6.44 4.7 -6.16 4.98 -5.85 5.21 -5.53 5.41 -5.18 5.56 -4.81 5.66 -4.43 5.74 -4.02 5.77 -3.59 5.78 -3.13 5.75 -2.64 5.7 -2.13 5.64 -1.57 5.56 -0.97 1.98 16.98 -3.73 0.66 -4.13 1.15 -4.44 1.66 -4.67 2.15 -4.84 2.62 -4.94 3.07 -4.99 3.49 -4.97 3.89 -4.91 4.25 -4.78 4.59 -4.62 4.9 -4.4 5.17 -4.14 5.42 -3.83 5.63 -3.47 5.82 -3.08 5.97 -2.63 6.08 -2.16 6.17 -1.64 6.23 -1.1 6.27 -0.52 6.28 0.09 6.27 0.73 6.26 1.41 6.25 2.13 6.24 2.92 6.23 3.76 6.22 4.67 6.2 5.65 6.16 6.7 6.1 7.81 6 8.98 5.87 -0.78 -0.42zm0.78 0.42c4.04,2.44 5.33,7.7 2.89,11.74 -2.44,4.04 -7.7,5.33 -11.74,2.89l8.85 -14.63zm113.44 18.3l-3.15 16.8 3.56 -0.09 -0.32 0.07 -0.51 0.11 -0.83 0.17 -1.11 0.21 -1.39 0.23 -1.65 0.25 -1.91 0.26 -2.17 0.26 -2.41 0.24 -2.66 0.22 -2.89 0.19 -3.12 0.14 -3.34 0.09 -3.56 0.02 -3.77 -0.05 -3.98 -0.14 -4.17 -0.23 -4.37 -0.34 -4.55 -0.46 -4.73 -0.58 -4.91 -0.72 -5.08 -0.87 -5.23 -1.03 -5.39 -1.19 -5.53 -1.37 -5.67 -1.56 -5.81 -1.76 -5.94 -1.97 -6.06 -2.18 -6.18 -2.42 -6.28 -2.66 -6.38 -2.9 7.29 -15.46 5.96 2.71 5.86 2.47 5.75 2.25 5.63 2.03 5.51 1.83 5.39 1.63 5.25 1.44 5.12 1.27 4.97 1.1 4.82 0.94 4.67 0.8 4.51 0.66 4.34 0.53 4.17 0.42 3.99 0.31 3.81 0.21 3.62 0.13 3.42 0.04 3.22 -0.02 3.01 -0.08 2.8 -0.13 2.58 -0.17 2.35 -0.2 2.12 -0.21 1.88 -0.22 1.63 -0.22 1.38 -0.21 1.12 -0.19 0.86 -0.16 0.59 -0.12 0.35 -0.07 -0.03 0.01 3.56 -0.09zm16.86 20.55l-20.01 -3.75 3.15 -16.8 20.01 3.75 -3.15 16.8zm3.15 -16.8c4.64,0.87 7.69,5.34 6.83,9.97 -0.87,4.64 -5.34,7.69 -9.97,6.83l3.15 -16.8z"></path> </g> <g> <path class="fil0" d="M419.54 372.54c-1.35,-4.52 1.21,-9.29 5.73,-10.64 4.52,-1.35 9.29,1.21 10.64,5.73l-16.37 4.91zm7.59 20.3l-9.44 -14.25 -0.49 0.35 -0.1 0.08 -0.03 0.03 0.02 -0.02 0.04 -0.04 0.07 -0.06 0.09 -0.08 0.11 -0.11 0.13 -0.13 0.14 -0.15 0.17 -0.18 0.16 -0.18 0.16 -0.2 0.18 -0.23 0.17 -0.23 0.17 -0.24 0.16 -0.25 0.15 -0.25 0.14 -0.25 0.13 -0.26 0.12 -0.26 0.1 -0.27 0.09 -0.26 0.07 -0.24 0.06 -0.26 0.04 -0.26 0.03 -0.26 0.01 -0.27 -0 -0.27 -0.02 -0.28 -0.04 -0.3 -0.07 -0.33 -0.1 -0.37 16.37 -4.91 0.37 1.37 0.27 1.37 0.19 1.36 0.1 1.34 0.02 1.31 -0.06 1.27 -0.13 1.24 -0.2 1.19 -0.25 1.15 -0.31 1.12 -0.35 1.05 -0.38 0.99 -0.41 0.95 -0.44 0.9 -0.46 0.85 -0.47 0.8 -0.48 0.74 -0.48 0.7 -0.48 0.65 -0.46 0.6 -0.47 0.57 -0.46 0.52 -0.42 0.47 -0.41 0.43 -0.39 0.39 -0.36 0.35 -0.33 0.3 -0.29 0.26 -0.25 0.21 -0.19 0.16 -0.17 0.14 -0.15 0.12 -0.49 0.35zm-5.09 33.37l-14.88 8.41 0 0 -1.63 -3.08 -1.39 -3.04 -1.16 -3 -0.93 -2.95 -0.72 -2.89 -0.5 -2.84 -0.3 -2.78 -0.1 -2.7 0.07 -2.61 0.24 -2.53 0.4 -2.42 0.53 -2.32 0.66 -2.21 0.76 -2.1 0.85 -1.98 0.92 -1.86 0.98 -1.75 1.01 -1.63 1.04 -1.51 1.05 -1.4 1.05 -1.29 1.03 -1.17 1 -1.07 0.96 -0.96 0.9 -0.85 0.84 -0.75 0.75 -0.64 0.68 -0.55 0.57 -0.44 0.44 -0.33 0.33 -0.23 0.24 -0.16 9.44 14.25 0.1 -0.07 -0.07 0.05 -0.19 0.14 -0.27 0.21 -0.35 0.28 -0.44 0.37 -0.5 0.44 -0.55 0.52 -0.59 0.59 -0.61 0.65 -0.63 0.72 -0.64 0.79 -0.63 0.85 -0.62 0.9 -0.6 0.96 -0.56 1.01 -0.52 1.06 -0.48 1.12 -0.42 1.16 -0.36 1.21 -0.29 1.27 -0.22 1.33 -0.13 1.39 -0.04 1.46 0.06 1.53 0.18 1.61 0.3 1.71 0.45 1.81 0.61 1.91 0.78 2.02 0.97 2.13 1.19 2.24 0 0zm5.07 22.75l-16.75 -3.42 0 0 0.03 -0.16 0.03 -0.17 0.02 -0.18 0.02 -0.19 0.01 -0.2 0.01 -0.17 0 -0.21 0 -0.22 -0.01 -0.24 -0.01 -0.24 -0.02 -0.24 -0.03 -0.29 -0.04 -0.27 -0.05 -0.29 -0.06 -0.31 -0.07 -0.33 -0.08 -0.34 -0.09 -0.35 -0.1 -0.37 -0.12 -0.38 -0.13 -0.39 -0.15 -0.41 -0.17 -0.44 -0.18 -0.44 -0.19 -0.45 -0.21 -0.47 -0.23 -0.5 -0.24 -0.51 -0.25 -0.51 -0.28 -0.54 -0.29 -0.55 -0.31 -0.56 14.88 -8.41 0.43 0.78 0.41 0.77 0.39 0.75 0.38 0.77 0.36 0.75 0.34 0.73 0.33 0.74 0.31 0.75 0.29 0.73 0.27 0.72 0.26 0.73 0.24 0.73 0.22 0.72 0.21 0.72 0.19 0.72 0.17 0.71 0.15 0.7 0.14 0.7 0.12 0.71 0.1 0.71 0.08 0.68 0.07 0.71 0.04 0.69 0.03 0.68 0.01 0.68 -0.01 0.68 -0.03 0.7 -0.05 0.66 -0.06 0.66 -0.09 0.66 -0.1 0.65 -0.12 0.65 0 0zm-11.81 43.31l-11.31 12.81 0 0 -2.72 -2.53 -2.42 -2.53 -2.12 -2.54 -1.83 -2.57 -1.54 -2.62 -1.24 -2.67 -0.92 -2.73 -0.58 -2.75 -0.24 -2.74 0.08 -2.67 0.38 -2.57 0.63 -2.43 0.83 -2.28 0.99 -2.13 1.1 -1.98 1.19 -1.86 1.25 -1.75 1.28 -1.66 1.3 -1.58 1.29 -1.5 1.27 -1.45 1.23 -1.39 1.18 -1.34 1.11 -1.29 1.02 -1.24 0.92 -1.18 0.81 -1.13 0.68 -1.05 0.55 -0.97 0.42 -0.88 0.29 -0.79 0.19 -0.71 16.75 3.42 -0.63 2.4 -0.83 2.27 -0.99 2.11 -1.1 1.97 -1.19 1.84 -1.24 1.73 -1.27 1.65 -1.29 1.56 -1.28 1.5 -1.27 1.44 -1.23 1.39 -1.18 1.34 -1.11 1.29 -1.02 1.24 -0.92 1.19 -0.81 1.14 -0.68 1.07 -0.56 0.99 -0.43 0.9 -0.3 0.82 -0.2 0.74 -0.1 0.68 -0.02 0.66 0.06 0.69 0.16 0.78 0.31 0.91 0.5 1.08 0.74 1.25 1.02 1.43 1.33 1.6 1.68 1.75 2.04 1.9 0 0zm3.5 33.8l-15.92 -6.24 0 0 0.38 -0.99 0.35 -0.95 0.31 -0.91 0.28 -0.88 0.25 -0.85 0.22 -0.81 0.19 -0.77 0.16 -0.72 0.14 -0.69 0.11 -0.66 0.08 -0.61 0.06 -0.57 0.04 -0.54 0.02 -0.5 0 -0.44 -0.01 -0.41 -0.03 -0.38 -0.04 -0.35 -0.05 -0.3 -0.06 -0.27 -0.07 -0.25 -0.07 -0.21 -0.07 -0.19 -0.08 -0.19 -0.09 -0.18 -0.09 -0.16 -0.09 -0.15 -0.12 -0.16 -0.13 -0.16 -0.14 -0.16 -0.17 -0.17 -0.19 -0.18 11.31 -12.81 0.78 0.72 0.74 0.76 0.71 0.8 0.67 0.84 0.63 0.87 0.6 0.92 0.54 0.95 0.48 0.97 0.44 0.99 0.39 1.03 0.34 1.05 0.28 1.05 0.23 1.07 0.18 1.08 0.13 1.07 0.09 1.09 0.04 1.1 -0 1.11 -0.04 1.1 -0.08 1.11 -0.12 1.12 -0.16 1.13 -0.19 1.12 -0.22 1.14 -0.26 1.16 -0.29 1.16 -0.33 1.17 -0.35 1.18 -0.39 1.2 -0.42 1.22 -0.45 1.24 -0.48 1.25 0 0zm0.26 14.68l-15.44 7.33 0 0 -0.31 -0.67 -0.3 -0.68 -0.3 -0.7 -0.29 -0.71 -0.28 -0.73 -0.26 -0.75 -0.25 -0.76 -0.24 -0.78 -0.22 -0.8 -0.2 -0.81 -0.18 -0.83 -0.16 -0.84 -0.14 -0.85 -0.12 -0.87 -0.1 -0.88 -0.07 -0.91 -0.04 -0.9 -0.02 -0.92 0.01 -0.95 0.03 -0.94 0.06 -0.95 0.09 -0.96 0.12 -0.97 0.15 -0.98 0.18 -0.99 0.21 -1 0.24 -1 0.27 -1 0.3 -1.02 0.33 -1.02 0.36 -1.03 0.39 -1.04 15.92 6.24 -0.25 0.66 -0.23 0.64 -0.2 0.62 -0.17 0.59 -0.16 0.58 -0.14 0.56 -0.11 0.53 -0.09 0.52 -0.08 0.5 -0.06 0.49 -0.04 0.47 -0.03 0.46 -0.02 0.45 -0 0.42 0.01 0.43 0.02 0.42 0.03 0.39 0.04 0.4 0.05 0.39 0.07 0.39 0.08 0.4 0.09 0.38 0.1 0.39 0.1 0.38 0.12 0.39 0.13 0.4 0.14 0.39 0.15 0.4 0.16 0.41 0.17 0.4 0.19 0.41 0.19 0.42 0 0zm0 -0c2.02,4.26 0.21,9.36 -4.05,11.39 -4.26,2.02 -9.36,0.21 -11.39,-4.05l15.44 -7.34zm4.37 59.15l-13.93 9.91 -0.23 -0.35 -1.7 -2.8 -1.46 -2.71 -1.22 -2.63 -0.99 -2.57 -0.76 -2.52 -0.53 -2.47 -0.3 -2.42 -0.08 -2.35 0.12 -2.25 0.29 -2.13 0.43 -1.98 0.52 -1.84 0.58 -1.7 0.6 -1.57 0.6 -1.45 0.56 -1.34 0.52 -1.27 0.47 -1.2 0.41 -1.15 0.35 -1.13 0.28 -1.13 0.22 -1.16 0.14 -1.22 0.06 -1.31 -0.03 -1.44 -0.14 -1.6 -0.28 -1.78 -0.44 -1.99 -0.63 -2.21 -0.84 -2.44 -1.07 -2.69 -1.33 -2.95 15.44 -7.33 1.62 3.59 1.36 3.42 1.12 3.26 0.89 3.12 0.67 2.98 0.45 2.87 0.25 2.74 0.06 2.62 -0.12 2.5 -0.28 2.37 -0.41 2.22 -0.51 2.07 -0.58 1.91 -0.62 1.77 -0.63 1.62 -0.6 1.47 -0.57 1.34 -0.5 1.21 -0.42 1.09 -0.34 0.98 -0.25 0.89 -0.18 0.81 -0.11 0.76 -0.04 0.77 0.03 0.82 0.11 0.92 0.23 1.06 0.37 1.24 0.56 1.44 0.77 1.65 1.01 1.87 1.28 2.1 -0.23 -0.35zm0.23 0.35c2.54,3.97 1.38,9.26 -2.59,11.8 -3.97,2.54 -9.26,1.38 -11.8,-2.59l14.4 -9.21zm0.93 37.74l-11.32 -12.81 -0 0 0.42 -0.38 0.38 -0.35 0.34 -0.33 0.3 -0.3 0.24 -0.26 0.2 -0.23 0.17 -0.21 0.11 -0.15 0.09 -0.14 0.06 -0.1 0.03 -0.06 0.03 -0.07 0.02 -0.04 0.01 -0.05 0.01 -0.07 0.01 -0.12 0 -0.18 -0.01 -0.23 -0.03 -0.31 -0.07 -0.39 -0.11 -0.49 -0.16 -0.56 -0.22 -0.65 -0.29 -0.74 -0.36 -0.83 -0.44 -0.91 -0.52 -1 -0.61 -1.08 -0.7 -1.17 -0.79 -1.25 -0.89 -1.33 -0.99 -1.42 13.93 -9.91 1.18 1.69 1.09 1.64 1.01 1.6 0.93 1.55 0.85 1.51 0.77 1.48 0.7 1.45 0.62 1.42 0.55 1.41 0.48 1.39 0.4 1.39 0.32 1.37 0.24 1.37 0.16 1.38 0.06 1.37 -0.03 1.35 -0.12 1.34 -0.22 1.32 -0.31 1.28 -0.39 1.22 -0.46 1.14 -0.53 1.1 -0.57 1.02 -0.6 0.94 -0.64 0.88 -0.64 0.8 -0.64 0.74 -0.65 0.69 -0.63 0.63 -0.61 0.58 -0.6 0.55 -0.58 0.51 -0 0zm1.69 21.66l-9.96 13.89 -1.38 -1.05 -1.32 -1.12 -1.25 -1.18 -1.17 -1.24 -1.1 -1.29 -1.03 -1.35 -0.95 -1.39 -0.87 -1.43 -0.8 -1.47 -0.72 -1.51 -0.64 -1.54 -0.56 -1.58 -0.47 -1.6 -0.39 -1.63 -0.3 -1.66 -0.22 -1.67 -0.13 -1.68 -0.03 -1.7 0.06 -1.71 0.16 -1.71 0.26 -1.71 0.36 -1.7 0.46 -1.69 0.57 -1.67 0.68 -1.67 0.79 -1.62 0.88 -1.58 1 -1.55 1.11 -1.5 1.21 -1.45 1.31 -1.39 1.41 -1.32 11.32 12.81 -0.67 0.63 -0.6 0.64 -0.54 0.64 -0.48 0.65 -0.42 0.66 -0.38 0.68 -0.33 0.68 -0.28 0.68 -0.24 0.7 -0.2 0.71 -0.15 0.72 -0.11 0.73 -0.07 0.74 -0.03 0.74 0.02 0.76 0.06 0.76 0.1 0.76 0.14 0.76 0.18 0.76 0.22 0.75 0.26 0.73 0.3 0.73 0.34 0.72 0.38 0.69 0.42 0.68 0.44 0.65 0.48 0.62 0.51 0.6 0.54 0.57 0.57 0.54 0.6 0.51 0.63 0.48zm0 0c3.84,2.75 4.72,8.09 1.97,11.92 -2.75,3.84 -8.09,4.72 -11.92,1.97l9.96 -13.89z"></path> </g> <g> <path class="fil0" d="M536.27 309.24c-4.71,0.33 -8.8,-3.21 -9.13,-7.92 -0.33,-4.71 3.21,-8.8 7.92,-9.13l1.21 17.05zm129.93 53.44l-15.76 6.62 0 0 -2.92 -6.38 -3.17 -5.89 -3.4 -5.44 -3.61 -5 -3.8 -4.59 -3.96 -4.21 -4.11 -3.84 -4.25 -3.49 -4.36 -3.16 -4.46 -2.85 -4.53 -2.56 -4.59 -2.28 -4.62 -2.01 -4.63 -1.76 -4.62 -1.53 -4.58 -1.31 -4.52 -1.1 -4.44 -0.91 -4.33 -0.74 -4.19 -0.58 -4.04 -0.43 -3.85 -0.31 -3.64 -0.19 -3.41 -0.1 -3.14 -0.02 -2.86 0.04 -2.55 0.08 -2.22 0.11 -1.87 0.12 -1.5 0.12 -1.14 0.1 -0.86 0.07 -1.21 -17.05 0.6 -0.05 1.2 -0.1 1.69 -0.13 2.11 -0.14 2.5 -0.12 2.86 -0.09 3.2 -0.04 3.51 0.03 3.8 0.12 4.06 0.22 4.31 0.35 4.52 0.49 4.72 0.65 4.88 0.83 5.03 1.04 5.15 1.26 5.24 1.5 5.31 1.76 5.36 2.04 5.38 2.35 5.37 2.67 5.34 3.01 5.27 3.38 5.18 3.76 5.06 4.16 4.91 4.58 4.72 5.01 4.51 5.46 4.27 5.92 4 6.39 3.69 6.87 3.37 7.36 0 0zm5.11 55.23l-14.86 8.45 0 -0 -1.1 -2.09 -0.94 -2.1 -0.79 -2.11 -0.63 -2.1 -0.49 -2.08 -0.36 -2.05 -0.24 -2.01 -0.14 -1.97 -0.05 -1.93 0.03 -1.89 0.09 -1.84 0.14 -1.79 0.17 -1.75 0.2 -1.72 0.21 -1.68 0.21 -1.65 0.2 -1.63 0.19 -1.6 0.17 -1.59 0.14 -1.57 0.1 -1.56 0.06 -1.56 0.01 -1.56 -0.04 -1.57 -0.1 -1.58 -0.17 -1.6 -0.24 -1.63 -0.32 -1.66 -0.42 -1.71 -0.51 -1.76 -0.62 -1.82 -0.74 -1.89 15.76 -6.62 1.03 2.6 0.88 2.57 0.73 2.52 0.6 2.47 0.47 2.42 0.35 2.36 0.24 2.31 0.15 2.25 0.06 2.18 -0.01 2.12 -0.08 2.05 -0.13 1.98 -0.17 1.91 -0.19 1.84 -0.21 1.78 -0.21 1.71 -0.21 1.64 -0.2 1.58 -0.17 1.51 -0.14 1.45 -0.11 1.38 -0.07 1.32 -0.02 1.26 0.03 1.21 0.08 1.16 0.13 1.12 0.19 1.08 0.25 1.07 0.32 1.07 0.4 1.08 0.5 1.11 0.61 1.15 0 -0zm10.89 44.43l-16 -6.01 -0 0 -0.12 0.38 -0.03 0.12 0.01 -0.08 0.02 -0.25 0.01 -0.4 -0.01 -0.53 -0.04 -0.63 -0.06 -0.72 -0.09 -0.8 -0.12 -0.88 -0.15 -0.93 -0.18 -0.99 -0.21 -1.05 -0.24 -1.08 -0.27 -1.12 -0.3 -1.16 -0.33 -1.19 -0.35 -1.22 -0.38 -1.24 -0.4 -1.25 -0.43 -1.27 -0.45 -1.28 -0.47 -1.28 -0.5 -1.28 -0.52 -1.28 -0.54 -1.27 -0.56 -1.26 -0.58 -1.25 -0.6 -1.23 -0.61 -1.2 -0.62 -1.18 -0.64 -1.15 14.86 -8.45 0.81 1.45 0.78 1.48 0.75 1.49 0.72 1.5 0.7 1.51 0.67 1.52 0.64 1.52 0.62 1.53 0.59 1.52 0.56 1.52 0.53 1.51 0.51 1.5 0.48 1.5 0.45 1.48 0.42 1.46 0.39 1.44 0.36 1.42 0.34 1.4 0.3 1.38 0.27 1.34 0.24 1.32 0.21 1.29 0.18 1.26 0.14 1.24 0.11 1.22 0.06 1.19 0.03 1.17 -0.03 1.17 -0.08 1.2 -0.16 1.23 -0.27 1.28 -0.44 1.39 -0 0zm-1.33 48.86l-13.35 10.68 0 0 -1.73 -2.35 -1.52 -2.44 -1.3 -2.5 -1.11 -2.55 -0.92 -2.59 -0.75 -2.6 -0.59 -2.62 -0.45 -2.62 -0.31 -2.61 -0.19 -2.59 -0.09 -2.57 0.01 -2.54 0.1 -2.5 0.18 -2.47 0.25 -2.42 0.31 -2.37 0.37 -2.31 0.41 -2.24 0.44 -2.18 0.47 -2.1 0.49 -2.01 0.51 -1.92 0.51 -1.82 0.51 -1.72 0.5 -1.61 0.48 -1.48 0.46 -1.35 0.43 -1.23 0.39 -1.06 0.33 -0.91 0.28 -0.74 0.21 -0.54 16 6.01 -0.21 0.56 -0.25 0.67 -0.3 0.82 -0.34 0.94 -0.37 1.05 -0.4 1.18 -0.42 1.29 -0.43 1.38 -0.44 1.48 -0.44 1.57 -0.43 1.65 -0.42 1.71 -0.4 1.77 -0.37 1.82 -0.34 1.87 -0.3 1.89 -0.25 1.92 -0.2 1.93 -0.14 1.93 -0.08 1.93 -0.01 1.91 0.06 1.89 0.14 1.85 0.22 1.8 0.3 1.75 0.38 1.69 0.47 1.62 0.55 1.54 0.64 1.47 0.73 1.4 0.82 1.32 0.93 1.26 0 0zm0.46 69.29l-15.53 7.13 0 0 -1.41 -3.35 -1.14 -3.31 -0.88 -3.26 -0.63 -3.2 -0.4 -3.14 -0.19 -3.06 0.01 -2.97 0.18 -2.88 0.33 -2.79 0.45 -2.68 0.55 -2.58 0.63 -2.48 0.69 -2.38 0.72 -2.28 0.73 -2.19 0.73 -2.09 0.71 -1.99 0.67 -1.9 0.61 -1.8 0.54 -1.7 0.46 -1.6 0.36 -1.48 0.26 -1.37 0.16 -1.26 0.07 -1.13 -0.03 -1.03 -0.11 -0.96 -0.2 -0.91 -0.3 -0.9 -0.43 -0.94 -0.6 -1.02 -0.81 -1.11 13.35 -10.68 1.74 2.4 1.47 2.49 1.18 2.57 0.88 2.62 0.58 2.62 0.31 2.59 0.07 2.54 -0.14 2.46 -0.3 2.37 -0.44 2.3 -0.54 2.22 -0.61 2.15 -0.67 2.1 -0.69 2.06 -0.71 2.02 -0.71 1.99 -0.69 1.96 -0.65 1.94 -0.61 1.93 -0.55 1.91 -0.48 1.9 -0.41 1.89 -0.32 1.89 -0.22 1.89 -0.12 1.9 -0 1.92 0.12 1.95 0.26 2 0.41 2.06 0.58 2.13 0.77 2.22 0.98 2.33 0 0zm-4.83 48.89l-13.38 10.64 0 0 -1.48 -2.03 -1.25 -2.13 -0.99 -2.24 -0.7 -2.34 -0.37 -2.37 -0.05 -2.33 0.24 -2.22 0.47 -2.06 0.63 -1.88 0.73 -1.71 0.79 -1.56 0.81 -1.44 0.81 -1.35 0.8 -1.28 0.78 -1.23 0.73 -1.18 0.68 -1.14 0.63 -1.13 0.57 -1.11 0.5 -1.1 0.42 -1.09 0.36 -1.12 0.28 -1.14 0.2 -1.2 0.12 -1.26 0.02 -1.36 -0.09 -1.49 -0.23 -1.63 -0.39 -1.8 -0.57 -1.97 -0.77 -2.16 -1.01 -2.36 15.53 -7.13 1.38 3.24 1.13 3.15 0.88 3.05 0.64 2.97 0.41 2.88 0.18 2.78 -0.03 2.68 -0.23 2.58 -0.41 2.45 -0.57 2.32 -0.69 2.17 -0.79 2.04 -0.85 1.89 -0.89 1.75 -0.9 1.62 -0.89 1.5 -0.85 1.37 -0.79 1.25 -0.71 1.13 -0.61 1.02 -0.5 0.88 -0.38 0.74 -0.25 0.59 -0.15 0.42 -0.06 0.26 -0.02 0.13 -0 0.06 0.01 0.07 0.05 0.18 0.16 0.36 0.34 0.57 0.57 0.78 0 0zm4.05 47.7l-16.35 -5 0.22 -0.62 -0.01 0.03 0.05 -0.14 0.08 -0.23 0.13 -0.38 0.16 -0.48 0.19 -0.58 0.21 -0.69 0.23 -0.79 0.24 -0.87 0.24 -0.94 0.24 -1.02 0.23 -1.08 0.22 -1.14 0.2 -1.19 0.18 -1.23 0.16 -1.27 0.13 -1.3 0.09 -1.31 0.05 -1.33 0.01 -1.34 -0.04 -1.33 -0.09 -1.32 -0.15 -1.3 -0.2 -1.29 -0.26 -1.26 -0.31 -1.22 -0.38 -1.17 -0.44 -1.14 -0.5 -1.09 -0.57 -1.05 -0.64 -1.01 -0.72 -0.97 13.38 -10.64 1.44 1.95 1.28 2.01 1.11 2.05 0.96 2.08 0.81 2.09 0.68 2.1 0.55 2.1 0.43 2.08 0.33 2.06 0.23 2.04 0.14 2 0.06 1.96 -0.01 1.92 -0.07 1.87 -0.12 1.83 -0.17 1.77 -0.21 1.7 -0.24 1.64 -0.27 1.57 -0.29 1.49 -0.3 1.41 -0.31 1.32 -0.31 1.23 -0.31 1.13 -0.29 1.02 -0.28 0.92 -0.26 0.81 -0.23 0.69 -0.19 0.55 -0.16 0.45 -0.1 0.27 -0.07 0.17 0.22 -0.62zm-0.22 0.62c-1.72,4.39 -6.68,6.56 -11.07,4.84 -4.39,-1.72 -6.56,-6.68 -4.84,-11.07l15.92 6.23zm5.74 13.5l-11.76 12.41 0 0 -0.6 -0.57 -0.6 -0.58 -0.61 -0.6 -0.61 -0.62 -0.61 -0.63 -0.61 -0.66 -0.62 -0.69 -0.61 -0.71 -0.61 -0.74 -0.6 -0.78 -0.59 -0.81 -0.57 -0.83 -0.56 -0.87 -0.54 -0.92 -0.51 -0.95 -0.47 -0.99 -0.44 -1.03 -0.4 -1.07 -0.36 -1.1 -0.31 -1.13 -0.26 -1.17 -0.2 -1.2 -0.15 -1.21 -0.09 -1.24 -0.03 -1.26 0.03 -1.27 0.09 -1.29 0.15 -1.3 0.21 -1.31 0.27 -1.32 0.33 -1.33 0.38 -1.34 16.35 5 -0.21 0.74 -0.17 0.68 -0.13 0.64 -0.1 0.6 -0.06 0.54 -0.03 0.5 -0.01 0.47 0.01 0.44 0.03 0.41 0.05 0.39 0.06 0.36 0.08 0.35 0.09 0.35 0.11 0.34 0.13 0.33 0.15 0.34 0.17 0.35 0.19 0.35 0.21 0.35 0.24 0.37 0.26 0.39 0.28 0.39 0.3 0.39 0.34 0.41 0.36 0.42 0.38 0.42 0.42 0.44 0.44 0.46 0.46 0.46 0.47 0.47 0.5 0.48 0.51 0.49 0 0zm5.02 30.71l-13.67 -10.26 0 -0 -0.16 0.24 -0.09 0.16 -0.05 0.12 -0.02 0.04 0.01 -0.04 0.02 -0.08 0.03 -0.14 0.03 -0.17 0.02 -0.22 0.02 -0.26 0.01 -0.29 -0 -0.32 -0.01 -0.34 -0.03 -0.36 -0.04 -0.38 -0.06 -0.39 -0.07 -0.4 -0.09 -0.4 -0.1 -0.4 -0.12 -0.41 -0.14 -0.42 -0.15 -0.39 -0.16 -0.38 -0.18 -0.38 -0.19 -0.37 -0.2 -0.35 -0.21 -0.34 -0.22 -0.32 -0.22 -0.29 -0.23 -0.28 -0.24 -0.26 -0.24 -0.24 11.76 -12.41 0.84 0.84 0.79 0.87 0.74 0.89 0.69 0.92 0.63 0.93 0.59 0.94 0.55 0.96 0.5 0.96 0.46 0.97 0.42 0.99 0.37 0.99 0.33 0.97 0.3 0.98 0.26 1 0.22 0.99 0.18 0.98 0.15 0.98 0.11 0.98 0.08 0.98 0.04 0.98 0.01 0.96 -0.03 0.96 -0.07 0.96 -0.11 0.97 -0.16 0.97 -0.21 0.96 -0.26 0.97 -0.31 0.96 -0.39 0.98 -0.47 0.99 -0.55 0.97 -0.67 0.98 0 -0zm-1.23 10.36l-10.59 13.42 -0 -0 -1.18 -1.03 -1.04 -1.11 -0.92 -1.18 -0.78 -1.21 -0.65 -1.22 -0.54 -1.23 -0.45 -1.24 -0.36 -1.22 -0.28 -1.21 -0.22 -1.2 -0.16 -1.18 -0.1 -1.16 -0.06 -1.16 -0.01 -1.15 0.02 -1.13 0.06 -1.11 0.09 -1.09 0.12 -1.09 0.15 -1.06 0.17 -1.03 0.2 -1.03 0.23 -1 0.25 -0.97 0.27 -0.95 0.29 -0.93 0.32 -0.91 0.34 -0.88 0.37 -0.87 0.41 -0.87 0.46 -0.86 0.52 -0.86 0.61 -0.88 13.67 10.26 0.09 -0.12 -0.01 0.01 -0.06 0.11 -0.1 0.21 -0.12 0.29 -0.14 0.36 -0.14 0.4 -0.14 0.45 -0.14 0.5 -0.14 0.53 -0.13 0.55 -0.11 0.56 -0.1 0.59 -0.08 0.59 -0.07 0.58 -0.05 0.59 -0.03 0.58 -0.01 0.56 0.01 0.53 0.03 0.5 0.04 0.48 0.06 0.43 0.07 0.37 0.08 0.33 0.07 0.26 0.07 0.18 0.05 0.13 0.04 0.07 -0.01 -0 -0.05 -0.06 -0.08 -0.08 -0.12 -0.1 -0 -0zm-2.18 38.16l-11.23 -12.89 0 0 0.57 -0.52 0.53 -0.53 0.47 -0.52 0.41 -0.51 0.38 -0.52 0.33 -0.51 0.29 -0.5 0.26 -0.5 0.22 -0.49 0.19 -0.48 0.16 -0.47 0.13 -0.46 0.1 -0.46 0.08 -0.46 0.05 -0.43 0.02 -0.41 0 -0.41 -0.02 -0.4 -0.04 -0.38 -0.05 -0.36 -0.07 -0.36 -0.08 -0.32 -0.09 -0.29 -0.11 -0.28 -0.12 -0.26 -0.12 -0.23 -0.12 -0.2 -0.11 -0.16 -0.12 -0.15 -0.12 -0.13 -0.1 -0.1 -0.09 -0.08 10.59 -13.42 1 0.84 0.93 0.9 0.85 0.95 0.79 1 0.73 1.06 0.66 1.09 0.58 1.11 0.52 1.14 0.46 1.18 0.39 1.21 0.32 1.23 0.26 1.23 0.2 1.27 0.13 1.29 0.06 1.29 -0.01 1.31 -0.08 1.33 -0.15 1.32 -0.22 1.32 -0.29 1.32 -0.37 1.33 -0.44 1.32 -0.51 1.31 -0.59 1.3 -0.66 1.28 -0.74 1.26 -0.81 1.24 -0.89 1.21 -0.97 1.19 -1.04 1.15 -1.1 1.11 -1.18 1.08 0 0zm6.51 9.54l-11.74 12.42 0 0 -0.51 -0.48 -0.56 -0.52 -0.59 -0.55 -0.62 -0.58 -0.66 -0.62 -0.67 -0.65 -0.7 -0.69 -0.71 -0.73 -0.71 -0.75 -0.72 -0.79 -0.72 -0.84 -0.71 -0.88 -0.69 -0.92 -0.68 -0.97 -0.66 -1.03 -0.62 -1.08 -0.59 -1.16 -0.53 -1.23 -0.46 -1.3 -0.38 -1.4 -0.27 -1.48 -0.14 -1.53 -0 -1.6 0.16 -1.63 0.33 -1.62 0.5 -1.61 0.66 -1.56 0.81 -1.48 0.94 -1.41 1.06 -1.33 1.17 -1.25 1.27 -1.18 11.23 12.89 -0.43 0.4 -0.31 0.33 -0.2 0.24 -0.11 0.17 -0.05 0.09 -0 0.01 0.02 -0.06 0.02 -0.07 0.01 -0.08 0 -0.07 0 -0.01 0.01 0.03 0.03 0.09 0.06 0.18 0.1 0.23 0.15 0.28 0.2 0.34 0.24 0.38 0.29 0.41 0.34 0.45 0.38 0.47 0.41 0.48 0.45 0.5 0.49 0.52 0.5 0.51 0.53 0.52 0.55 0.53 0.56 0.53 0.57 0.53 0.58 0.54 0.57 0.53 0.57 0.54 0 0zm-0 -0c3.43,3.24 3.59,8.65 0.35,12.08 -3.24,3.43 -8.65,3.59 -12.08,0.35l11.73 -12.43zm-2.1 31.39l-7.54 -15.34 0 0 0.07 -0.04 0.01 -0.01 -0.01 0.01 -0.03 0.03 -0.04 0.04 -0.04 0.05 -0.05 0.07 -0.03 0.05 -0.02 0.05 -0.02 0.04 -0.01 0.02 0 -0.01 0.01 -0.04 0.01 -0.06 0 -0.06 -0 -0.11 -0.01 -0.15 -0.02 -0.16 -0.04 -0.2 -0.04 -0.2 -0.06 -0.21 -0.08 -0.24 -0.09 -0.24 -0.11 -0.24 -0.13 -0.26 -0.15 -0.27 -0.17 -0.26 -0.18 -0.25 -0.19 -0.25 -0.21 -0.25 -0.22 -0.24 -0.23 -0.23 11.74 -12.42 0.8 0.79 0.75 0.82 0.71 0.84 0.67 0.87 0.62 0.9 0.58 0.91 0.53 0.93 0.49 0.96 0.45 0.99 0.4 1 0.34 1.01 0.3 1.05 0.25 1.06 0.19 1.06 0.14 1.09 0.07 1.1 0.01 1.12 -0.06 1.15 -0.13 1.14 -0.2 1.13 -0.28 1.14 -0.37 1.14 -0.46 1.13 -0.55 1.1 -0.64 1.07 -0.73 1.04 -0.82 0.98 -0.89 0.92 -0.97 0.85 -1.04 0.78 -1.11 0.7 -1.14 0.61 0 0zm-0.31 11.99l-10.05 13.82 -1.44 -1.14 -1.33 -1.23 -1.22 -1.32 -1.09 -1.39 -0.95 -1.44 -0.83 -1.49 -0.7 -1.51 -0.58 -1.54 -0.46 -1.56 -0.34 -1.55 -0.24 -1.54 -0.14 -1.53 -0.05 -1.51 0.04 -1.48 0.12 -1.45 0.19 -1.44 0.26 -1.42 0.33 -1.37 0.39 -1.35 0.45 -1.32 0.51 -1.28 0.56 -1.24 0.62 -1.21 0.68 -1.17 0.74 -1.14 0.8 -1.09 0.86 -1.05 0.94 -1 1.03 -0.96 1.11 -0.89 1.21 -0.82 1.33 -0.73 7.54 15.34 0.08 -0.04 -0.01 0.01 -0.08 0.06 -0.13 0.13 -0.19 0.2 -0.21 0.26 -0.23 0.32 -0.23 0.36 -0.24 0.41 -0.24 0.46 -0.22 0.49 -0.21 0.52 -0.18 0.53 -0.16 0.55 -0.13 0.57 -0.1 0.56 -0.07 0.56 -0.04 0.56 -0.01 0.54 0.01 0.51 0.04 0.49 0.07 0.47 0.1 0.44 0.12 0.4 0.14 0.38 0.16 0.36 0.19 0.33 0.21 0.33 0.24 0.31 0.28 0.31 0.33 0.31 0.4 0.32zm0 0c3.82,2.78 4.66,8.12 1.89,11.94 -2.78,3.82 -8.12,4.66 -11.94,1.89l10.05 -13.82z"></path> </g> <g> <path class="fil1 str1" d="M396.16 1321.47c0,0 -63.77,25.78 -70.04,30.17 -6.27,4.38 -13.16,18.17 -14.42,31.96 -1.25,13.79 -3.76,45.32 8.78,55.16l14.47 6.7"></path> </g> <g> <path class="fil0" d="M362.08 1352.55c2.96,-3.68 8.34,-4.26 12.01,-1.31 3.68,2.96 4.26,8.34 1.31,12.01l-13.32 -10.71zm-21.14 51.51l-12.08 -12.08 0 0 0.69 -0.71 0.83 -0.87 0.93 -1.01 1.02 -1.13 1.11 -1.25 1.18 -1.34 1.24 -1.42 1.29 -1.5 1.33 -1.56 1.36 -1.61 1.39 -1.65 1.41 -1.68 1.42 -1.7 1.42 -1.7 1.41 -1.7 1.4 -1.69 1.38 -1.67 1.34 -1.63 1.3 -1.59 1.26 -1.54 1.2 -1.47 1.14 -1.4 1.07 -1.31 0.99 -1.22 0.9 -1.11 0.8 -0.99 0.7 -0.87 0.6 -0.74 0.47 -0.59 0.35 -0.43 0.21 -0.27 0.07 -0.09 13.32 10.71 -0.07 0.1 -0.22 0.27 -0.36 0.45 -0.48 0.6 -0.59 0.73 -0.71 0.88 -0.82 1.01 -0.91 1.12 -1 1.23 -1.08 1.32 -1.15 1.41 -1.22 1.49 -1.26 1.55 -1.32 1.61 -1.36 1.65 -1.39 1.68 -1.41 1.71 -1.43 1.73 -1.44 1.73 -1.44 1.72 -1.44 1.71 -1.42 1.69 -1.4 1.65 -1.37 1.6 -1.33 1.55 -1.29 1.48 -1.24 1.42 -1.18 1.33 -1.12 1.25 -1.07 1.15 -0.99 1.05 -0.93 0.95 0 0zm0.66 23.41l-14.66 8.79 0 0 -1 -1.71 -0.93 -1.69 -0.86 -1.66 -0.8 -1.63 -0.73 -1.61 -0.66 -1.59 -0.6 -1.58 -0.53 -1.56 -0.45 -1.55 -0.39 -1.53 -0.32 -1.53 -0.24 -1.53 -0.17 -1.51 -0.09 -1.5 -0.01 -1.5 0.07 -1.48 0.15 -1.46 0.23 -1.44 0.3 -1.4 0.37 -1.37 0.45 -1.35 0.51 -1.3 0.57 -1.25 0.62 -1.21 0.68 -1.18 0.72 -1.13 0.76 -1.09 0.79 -1.05 0.83 -1.02 0.86 -0.99 0.88 -0.95 0.9 -0.93 12.08 12.08 -0.59 0.61 -0.55 0.59 -0.5 0.58 -0.45 0.56 -0.41 0.55 -0.37 0.53 -0.33 0.51 -0.28 0.49 -0.25 0.49 -0.22 0.48 -0.18 0.46 -0.15 0.46 -0.13 0.47 -0.1 0.49 -0.08 0.5 -0.05 0.52 -0.02 0.55 0 0.59 0.04 0.64 0.08 0.69 0.12 0.73 0.16 0.79 0.21 0.85 0.27 0.91 0.32 0.96 0.39 1.02 0.45 1.09 0.51 1.14 0.59 1.21 0.66 1.26 0.73 1.31 0.81 1.38 0 0zm0.19 29.67l0 -17.09 -1.29 0.1 -1.07 0.24 -1.1 0.41 -1.42 0.82 -1.12 0.96 -0.87 1.06 -0.7 1.23 -0.39 1.03 -0.22 0.98 -0.08 0.78 -0.01 0.51 0.03 0.42 0.04 0.28 0.03 0.14 0.01 0.03 -0.02 -0.06 -0.05 -0.15 -0.09 -0.25 -0.13 -0.34 -0.17 -0.41 -0.21 -0.48 -0.26 -0.58 -0.31 -0.66 -0.36 -0.73 -0.42 -0.82 -0.48 -0.92 -0.53 -1 -0.6 -1.08 -0.66 -1.17 -0.73 -1.28 -0.8 -1.37 -0.87 -1.47 14.66 -8.79 0.94 1.57 0.87 1.48 0.8 1.39 0.74 1.31 0.68 1.24 0.62 1.15 0.56 1.07 0.52 1.02 0.47 0.96 0.42 0.89 0.38 0.84 0.35 0.8 0.31 0.76 0.27 0.7 0.24 0.69 0.22 0.68 0.19 0.68 0.16 0.67 0.13 0.7 0.1 0.77 0.05 0.82 -0.01 0.85 -0.11 1.05 -0.27 1.2 -0.45 1.2 -0.77 1.35 -0.95 1.15 -1.19 1.02 -1.49 0.85 -1.15 0.43 -1.11 0.25 -1.31 0.1zm0 0c-4.72,0 -8.55,-3.83 -8.55,-8.55 0,-4.72 3.83,-8.55 8.55,-8.55l0 17.09z"></path> </g> <g> <path class="fil0" d="M727.12 835.11c-0.49,4.69 -4.7,8.1 -9.39,7.6 -4.69,-0.49 -8.1,-4.7 -7.6,-9.39l17 1.79zm12.7 -267.36l15.77 6.59 0 0 -4.32 10.83 -3.93 10.85 -3.55 10.86 -3.2 10.84 -2.85 10.81 -2.53 10.75 -2.22 10.68 -1.93 10.58 -1.66 10.47 -1.4 10.33 -1.16 10.17 -0.94 10 -0.74 9.8 -0.55 9.58 -0.38 9.35 -0.22 9.09 -0.08 8.82 0.03 8.52 0.14 8.2 0.22 7.87 0.28 7.51 0.34 7.14 0.37 6.74 0.38 6.33 0.38 5.9 0.36 5.46 0.32 5 0.27 4.53 0.2 4.06 0.11 3.61 -0.01 3.2 -0.18 2.89 -17 -1.79 0.09 -1.59 0.01 -2.46 -0.09 -3.18 -0.19 -3.82 -0.26 -4.4 -0.32 -4.95 -0.36 -5.46 -0.38 -5.95 -0.39 -6.42 -0.37 -6.86 -0.34 -7.28 -0.29 -7.68 -0.23 -8.05 -0.14 -8.41 -0.03 -8.74 0.09 -9.05 0.23 -9.35 0.39 -9.63 0.57 -9.88 0.76 -10.12 0.97 -10.33 1.2 -10.52 1.46 -10.7 1.72 -10.85 2.01 -10.98 2.31 -11.1 2.63 -11.19 2.98 -11.26 3.33 -11.32 3.71 -11.35 4.11 -11.36 4.53 -11.35 0 0zm-238.65 -228.64l-3.35 -16.76 0 0 12.82 -2.01 12.99 -0.97 13.1 0.02 13.16 0.97 13.18 1.87 13.14 2.73 13.06 3.54 12.94 4.32 12.77 5.06 12.56 5.76 12.31 6.41 12.01 7.03 11.66 7.62 11.27 8.17 10.84 8.68 10.35 9.16 9.83 9.6 9.25 10.01 8.63 10.38 7.96 10.73 7.24 11.04 6.47 11.32 5.65 11.56 4.78 11.78 3.84 11.96 2.86 12.1 1.81 12.21 0.7 12.27 -0.47 12.29 -1.69 12.25 -2.97 12.16 -4.3 11.99 -15.77 -6.59 3.7 -10.33 2.55 -10.44 1.46 -10.54 0.41 -10.63 -0.61 -10.69 -1.59 -10.73 -2.53 -10.74 -3.44 -10.71 -4.32 -10.64 -5.15 -10.53 -5.94 -10.38 -6.68 -10.19 -7.39 -9.95 -8.04 -9.68 -8.65 -9.36 -9.21 -9 -9.72 -8.6 -10.19 -8.16 -10.6 -7.68 -10.97 -7.16 -11.28 -6.61 -11.55 -6.02 -11.76 -5.39 -11.92 -4.72 -12.03 -4.02 -12.09 -3.28 -12.1 -2.52 -12.07 -1.71 -11.98 -0.88 -11.84 -0.02 -11.65 0.87 -11.43 1.79 0 0zm-96.08 124.46l-13.77 -10.13 -1.38 7.24 -0.13 -0.52 -0.23 -1.01 -0.33 -1.58 -0.38 -2.09 -0.4 -2.58 -0.39 -3.04 -0.34 -3.45 -0.26 -3.84 -0.14 -4.21 0.01 -4.53 0.2 -4.82 0.42 -5.09 0.69 -5.32 0.99 -5.52 1.32 -5.68 1.7 -5.82 2.11 -5.91 2.56 -5.97 3.05 -5.98 3.57 -5.96 4.13 -5.9 4.71 -5.79 5.32 -5.64 5.96 -5.45 6.63 -5.23 7.32 -4.96 8.03 -4.67 8.77 -4.34 9.53 -3.97 10.33 -3.59 11.15 -3.17 12 -2.72 3.35 16.76 -11.14 2.53 -10.23 2.91 -9.37 3.26 -8.55 3.56 -7.76 3.84 -7.02 4.08 -6.32 4.28 -5.65 4.46 -5.04 4.61 -4.46 4.73 -3.92 4.82 -3.42 4.89 -2.96 4.94 -2.53 4.96 -2.13 4.96 -1.76 4.93 -1.42 4.88 -1.12 4.79 -0.83 4.68 -0.58 4.53 -0.36 4.34 -0.17 4.13 -0.01 3.89 0.12 3.6 0.23 3.29 0.29 2.94 0.33 2.55 0.34 2.14 0.31 1.69 0.25 1.21 0.17 0.71 0.02 0.07 -1.38 7.24zm-24.53 111.64l-17.03 1.41 0 0 -0.33 -4.69 -0.21 -4.69 -0.1 -4.68 0 -4.67 0.1 -4.65 0.2 -4.63 0.3 -4.6 0.39 -4.56 0.48 -4.52 0.56 -4.48 0.64 -4.43 0.71 -4.37 0.79 -4.32 0.85 -4.25 0.92 -4.18 0.98 -4.1 1.04 -4.02 1.09 -3.94 1.14 -3.84 1.19 -3.75 1.24 -3.65 1.27 -3.54 1.32 -3.43 1.35 -3.31 1.38 -3.2 1.42 -3.07 1.45 -2.94 1.47 -2.81 1.5 -2.68 1.53 -2.54 1.55 -2.39 1.59 -2.25 13.77 10.13 -1.19 1.69 -1.22 1.88 -1.24 2.06 -1.25 2.23 -1.26 2.4 -1.26 2.56 -1.25 2.7 -1.23 2.84 -1.21 2.98 -1.19 3.1 -1.16 3.22 -1.13 3.33 -1.09 3.44 -1.05 3.54 -1.01 3.63 -0.96 3.72 -0.91 3.8 -0.85 3.88 -0.79 3.94 -0.73 4.01 -0.66 4.06 -0.59 4.11 -0.52 4.15 -0.44 4.19 -0.36 4.22 -0.28 4.25 -0.19 4.27 -0.1 4.28 -0 4.29 0.09 4.29 0.2 4.28 0.3 4.27 0 0zm35.33 98.55l-14.11 9.65 0 0 -1.19 -1.77 -1.23 -1.91 -1.28 -2.03 -1.32 -2.17 -1.35 -2.3 -1.38 -2.42 -1.41 -2.55 -1.43 -2.66 -1.45 -2.77 -1.46 -2.89 -1.47 -2.99 -1.47 -3.09 -1.47 -3.19 -1.46 -3.29 -1.44 -3.38 -1.43 -3.46 -1.4 -3.55 -1.37 -3.63 -1.34 -3.7 -1.3 -3.77 -1.26 -3.83 -1.21 -3.9 -1.15 -3.96 -1.09 -4.01 -1.03 -4.06 -0.95 -4.11 -0.88 -4.15 -0.8 -4.19 -0.71 -4.22 -0.62 -4.26 -0.51 -4.28 -0.41 -4.3 17.03 -1.41 0.37 3.88 0.47 3.87 0.56 3.86 0.64 3.85 0.73 3.83 0.81 3.81 0.88 3.78 0.95 3.75 1.01 3.71 1.07 3.67 1.13 3.63 1.17 3.58 1.21 3.52 1.25 3.46 1.29 3.39 1.31 3.32 1.34 3.25 1.35 3.17 1.36 3.08 1.37 2.99 1.38 2.9 1.37 2.8 1.36 2.69 1.35 2.59 1.33 2.47 1.31 2.36 1.27 2.23 1.24 2.1 1.2 1.97 1.14 1.83 1.09 1.68 1.02 1.53 0 0zm-148.27 301.53l-16.76 3.38 0 0 -1.42 -11.02 0.12 -10.99 1.53 -10.87 2.79 -10.72 3.92 -10.57 4.9 -10.42 5.78 -10.29 6.53 -10.17 7.18 -10.07 7.73 -9.97 8.18 -9.89 8.53 -9.81 8.78 -9.73 8.94 -9.66 8.99 -9.58 8.95 -9.5 8.8 -9.41 8.56 -9.32 8.21 -9.22 7.76 -9.11 7.21 -8.99 6.56 -8.85 5.82 -8.69 4.98 -8.5 4.05 -8.27 3.05 -8.02 1.99 -7.74 0.9 -7.45 -0.22 -7.21 -1.39 -7.07 -2.67 -7.03 -4.12 -7.12 14.11 -9.65 5.43 9.39 3.67 9.69 1.94 9.86 0.31 9.91 -1.18 9.86 -2.5 9.75 -3.66 9.65 -4.67 9.55 -5.56 9.49 -6.33 9.46 -7 9.44 -7.57 9.44 -8.04 9.45 -8.42 9.46 -8.7 9.48 -8.87 9.49 -8.96 9.51 -8.94 9.52 -8.82 9.53 -8.6 9.54 -8.29 9.53 -7.88 9.52 -7.36 9.49 -6.74 9.45 -6.03 9.39 -5.23 9.31 -4.34 9.21 -3.37 9.08 -2.33 8.94 -1.25 8.8 -0.1 8.69 1.11 8.64 0 0zm-56.79 112.35l-8.22 -14.99 0 0 1.77 -0.99 1.91 -1.1 2.02 -1.22 2.12 -1.33 2.2 -1.44 2.27 -1.56 2.32 -1.68 2.36 -1.8 2.38 -1.92 2.39 -2.04 2.38 -2.16 2.36 -2.28 2.33 -2.41 2.28 -2.53 2.21 -2.65 2.13 -2.78 2.04 -2.91 1.94 -3.03 1.81 -3.17 1.69 -3.3 1.54 -3.44 1.39 -3.58 1.22 -3.72 1.04 -3.87 0.85 -4.02 0.64 -4.18 0.42 -4.35 0.19 -4.53 -0.07 -4.71 -0.34 -4.89 -0.62 -5.09 -0.93 -5.29 16.76 -3.38 1.08 6.14 0.73 5.98 0.4 5.81 0.08 5.64 -0.22 5.47 -0.51 5.3 -0.79 5.13 -1.05 4.95 -1.29 4.77 -1.51 4.59 -1.71 4.41 -1.9 4.23 -2.07 4.05 -2.22 3.87 -2.35 3.69 -2.46 3.51 -2.56 3.34 -2.64 3.17 -2.7 3 -2.74 2.84 -2.77 2.68 -2.78 2.52 -2.77 2.37 -2.75 2.22 -2.71 2.07 -2.65 1.92 -2.59 1.78 -2.51 1.65 -2.4 1.51 -2.29 1.37 -2.15 1.25 -2.01 1.12 0 0zm-98.07 168.87l-17.05 1.13 -0.6 -13.16 -0.02 -12.54 0.53 -11.92 1.05 -11.33 1.55 -10.74 2 -10.17 2.44 -9.63 2.84 -9.08 3.2 -8.56 3.54 -8.05 3.84 -7.55 4.1 -7.06 4.33 -6.59 4.53 -6.14 4.69 -5.69 4.81 -5.27 4.89 -4.87 4.95 -4.48 4.96 -4.11 4.94 -3.75 4.88 -3.42 4.79 -3.11 4.66 -2.81 4.5 -2.54 4.31 -2.29 4.07 -2.05 3.8 -1.83 3.49 -1.63 3.14 -1.44 2.73 -1.26 2.25 -1.07 1.7 -0.88 8.22 14.99 -2.35 1.21 -2.59 1.24 -2.84 1.31 -3.1 1.42 -3.35 1.56 -3.57 1.72 -3.77 1.9 -3.94 2.09 -4.09 2.31 -4.21 2.54 -4.3 2.79 -4.36 3.06 -4.39 3.34 -4.39 3.64 -4.37 3.95 -4.32 4.29 -4.24 4.64 -4.12 5.01 -3.99 5.4 -3.82 5.81 -3.63 6.24 -3.41 6.69 -3.15 7.17 -2.87 7.67 -2.56 8.19 -2.21 8.73 -1.83 9.29 -1.42 9.88 -0.98 10.49 -0.5 11.12 0.02 11.77 0.57 12.44zm0 0c0.31,4.71 -3.25,8.78 -7.96,9.09 -4.71,0.31 -8.78,-3.25 -9.09,-7.96l17.05 -1.13z"></path> </g> <g> <path class="fil0" d="M631.23 426.42c3.86,-2.72 9.19,-1.79 11.91,2.07 2.72,3.86 1.79,9.19 -2.07,11.91l-9.84 -13.98zm-24.23 14.74l5.66 -16.13 0 0 1.42 0.48 1.36 0.41 1.3 0.36 1.23 0.3 1.18 0.25 1.12 0.2 1.05 0.16 1 0.11 0.94 0.08 0.88 0.04 0.83 0.01 0.78 -0.01 0.71 -0.04 0.68 -0.05 0.62 -0.07 0.56 -0.08 0.53 -0.09 0.48 -0.1 0.42 -0.1 0.37 -0.1 0.33 -0.1 0.3 -0.1 0.24 -0.09 0.19 -0.08 0.18 -0.08 0.12 -0.06 0.06 -0.03 0.01 -0.01 -0.02 0.01 -0.01 0 -0.06 0.04 -0.22 0.15 9.84 13.98 -0.27 0.18 -0.21 0.14 -0.26 0.16 -0.37 0.22 -0.44 0.24 -0.48 0.25 -0.54 0.25 -0.57 0.26 -0.67 0.27 -0.72 0.27 -0.76 0.26 -0.83 0.26 -0.89 0.25 -0.95 0.23 -1 0.21 -1.05 0.19 -1.12 0.16 -1.17 0.13 -1.21 0.1 -1.29 0.06 -1.33 0.02 -1.38 -0.02 -1.44 -0.07 -1.48 -0.12 -1.54 -0.17 -1.59 -0.23 -1.63 -0.29 -1.68 -0.35 -1.74 -0.42 -1.77 -0.48 -1.83 -0.56 -1.88 -0.63 0 0zm-61.59 9.05l-16.58 -4.15 0 0 1.03 -3.36 1.37 -3.17 1.68 -2.94 1.96 -2.68 2.2 -2.42 2.4 -2.15 2.56 -1.89 2.69 -1.65 2.8 -1.42 2.88 -1.21 2.95 -1.02 3 -0.84 3.05 -0.69 3.09 -0.54 3.11 -0.41 3.13 -0.28 3.14 -0.17 3.13 -0.07 3.11 0.02 3.09 0.11 3.06 0.19 3.01 0.26 2.96 0.33 2.9 0.39 2.81 0.44 2.72 0.49 2.63 0.53 2.53 0.57 2.4 0.6 2.27 0.62 2.15 0.65 2.01 0.67 -5.66 16.13 -1.51 -0.5 -1.7 -0.51 -1.88 -0.51 -2.02 -0.5 -2.15 -0.48 -2.26 -0.46 -2.37 -0.42 -2.44 -0.39 -2.51 -0.34 -2.57 -0.28 -2.6 -0.23 -2.62 -0.17 -2.63 -0.09 -2.62 -0.02 -2.59 0.06 -2.55 0.14 -2.49 0.23 -2.41 0.31 -2.33 0.41 -2.22 0.5 -2.1 0.59 -1.96 0.67 -1.8 0.76 -1.64 0.83 -1.47 0.9 -1.31 0.96 -1.14 1.02 -0.99 1.09 -0.86 1.17 -0.73 1.28 -0.62 1.43 -0.5 1.61 0 0zm-6.33 43.22l-17.09 0.3 0 -0.12 -0 -0.2 0 -0.33 0 -0.41 0.01 -0.51 0.01 -0.62 0.02 -0.71 0.02 -0.8 0.04 -0.9 0.05 -0.99 0.06 -1.08 0.07 -1.17 0.09 -1.26 0.11 -1.34 0.12 -1.43 0.14 -1.52 0.17 -1.6 0.19 -1.67 0.21 -1.75 0.24 -1.83 0.26 -1.91 0.29 -1.98 0.32 -2.05 0.35 -2.12 0.38 -2.19 0.42 -2.26 0.45 -2.33 0.49 -2.4 0.52 -2.46 0.56 -2.52 0.6 -2.58 0.65 -2.64 16.58 4.15 -0.61 2.47 -0.56 2.41 -0.53 2.36 -0.49 2.3 -0.45 2.23 -0.42 2.17 -0.39 2.11 -0.35 2.04 -0.33 1.97 -0.29 1.9 -0.27 1.83 -0.24 1.76 -0.22 1.68 -0.19 1.61 -0.17 1.53 -0.15 1.45 -0.13 1.37 -0.11 1.29 -0.09 1.21 -0.08 1.13 -0.07 1.04 -0.05 0.95 -0.04 0.86 -0.03 0.77 -0.02 0.69 -0.02 0.59 -0.01 0.49 -0.01 0.4 -0 0.3 0 0.19 0 0.12 0 -0.01zm0 0c0.08,4.72 -3.68,8.61 -8.4,8.69 -4.72,0.08 -8.61,-3.68 -8.69,-8.4l17.09 -0.3z"></path> </g> </g> </svg> 